<?xml version="1.0" encoding="UTF-8"?>
<svg version="1.1" xmlns="http://www.w3.org/2000/svg" width="32" height="32">
<path d="M0 0 C10.56 0 21.12 0 32 0 C32 10.56 32 21.12 32 32 C21.44 32 10.88 32 0 32 C0 21.44 0 10.88 0 0 Z " fill="#D8BE8C" transform="translate(0,0)"/>
<path d="M0 0 C10.56 0 21.12 0 32 0 C32 4.29 32 8.58 32 13 C30.22293791 10.33440687 29.12451727 7.9719385 28 5 C27.01 5.495 27.01 5.495 26 6 C26 6.99 26 7.98 26 9 C25.1028125 8.2884375 25.1028125 8.2884375 24.1875 7.5625 C20.64075403 5.02911002 17.3289048 4.61686751 13.0078125 4.6328125 C9.6519333 5.2465336 8.05180623 7.43524221 6 10 C7.98 10 9.96 10 12 10 C12 12.64 12 15.28 12 18 C14.32854463 19.19838209 14.32854463 19.19838209 17 20 C20.21178049 18.35426675 20.21178049 18.35426675 20.5625 15.5625 C20.706875 14.716875 20.85125 13.87125 21 13 C21.66 12.01 22.32 11.02 23 10 C25.5625 9.75 25.5625 9.75 28 10 C29 11 29 11 29.25 14.75 C29.17321602 18.65202203 28.66314993 20.99321782 26 24 C23.69855891 25.07136051 21.3659787 26.07989717 19 27 C18.67 27.66 18.34 28.32 18 29 C16.68 28.67 15.36 28.34 14 28 C14 27.34 14 26.68 14 26 C13.113125 25.95875 12.22625 25.9175 11.3125 25.875 C7.75762901 24.93597748 6.11140184 23.76436957 3.9140625 20.80859375 C2.26723119 17.55011983 2.32654757 14.53562524 3 11 C4.5 7.5 4.5 7.5 6 5 C5.34 5 4.68 5 4 5 C3.71125 5.598125 3.4225 6.19625 3.125 6.8125 C2 9 2 9 0 12 C0 8.04 0 4.08 0 0 Z " fill="#FBFCFB" transform="translate(0,0)"/>
<path d="M0 0 C3.46892258 1.28478614 5.39531636 2.0380033 7.375 5.1875 C7.58125 5.785625 7.7875 6.38375 8 7 C6.68 6.67 5.36 6.34 4 6 C3.87625 6.556875 3.7525 7.11375 3.625 7.6875 C1.78216123 14.50600343 1.78216123 14.50600343 -1.375 16.5 C-4 17 -4 17 -6.3125 16 C-8 14 -8 14 -8.3125 10.9375 C-8 8 -8 8 -7 6 C-8.98 6 -10.96 6 -13 6 C-10.34965861 -0.11617244 -6.2546073 -0.76852453 0 0 Z " fill="#C6E0EC" transform="translate(19,4)"/>
<path d="M0 0 C2.5625 -0.25 2.5625 -0.25 5 0 C6 1 6 1 6.25 4.75 C6.17321602 8.65202203 5.66314993 10.99321782 3 14 C0.69855891 15.07136051 -1.6340213 16.07989717 -4 17 C-4.33 17.66 -4.66 18.32 -5 19 C-6.32 18.67 -7.64 18.34 -9 18 C-9 17.34 -9 16.68 -9 16 C-11.97 15.505 -11.97 15.505 -15 15 C-14.67 13.68 -14.34 12.36 -14 11 C-11.02148438 10.70703125 -11.02148438 10.70703125 -8.04296875 10.4140625 C-5.70011858 10.07334609 -5.70011858 10.07334609 -3 8 C-2.61781233 6.34385343 -2.28604898 4.67542976 -2 3 C-1.34 2.01 -0.68 1.02 0 0 Z " fill="#F9F9F7" transform="translate(23,10)"/>
<path d="M0 0 C1.67000187 2.22666916 3.33831816 4.45461503 5 6.6875 C7.45379271 9.52469782 9.02301644 9.91400289 12.70703125 10.23828125 C18.98706119 10.38837002 23.1630672 10.47416284 28 6 C30.32277416 3.3908613 30.32277416 3.3908613 32 1 C32 4.96 32 8.92 32 13 C21.44 13 10.88 13 0 13 C0 8.71 0 4.42 0 0 Z " fill="#FDFCFA" transform="translate(0,19)"/>
<path d="M0 0 C2 1 4 2 6 3 C5.67 4.32 5.34 5.64 5 7 C4.360625 7.12375 3.72125 7.2475 3.0625 7.375 C2.381875 7.58125 1.70125 7.7875 1 8 C0.67 8.66 0.34 9.32 0 10 C-1.32 9.67 -2.64 9.34 -4 9 C-4 8.34 -4 7.68 -4 7 C-6.97 6.505 -6.97 6.505 -10 6 C-9.67 4.68 -9.34 3.36 -9 2 C-6.94921875 1.77213542 -4.8984375 1.54427083 -2.84765625 1.31640625 C-0.98859771 1.18113386 -0.98859771 1.18113386 0 0 Z " fill="#D9E8EF" transform="translate(18,19)"/>
<path d="M0 0 C0.25 2.8125 0.25 2.8125 0 6 C-1.6875 8 -1.6875 8 -4 9 C-6.39263407 8.33228817 -8.22097385 7.77902615 -10 6 C-10.04080783 4.00041636 -10.04254356 1.99954746 -10 0 C-6.7169902 -1.6415049 -3.57454967 -0.51888624 0 0 Z " fill="#CDB177" transform="translate(21,12)"/>
<path d="M0 0 C3.43284952 1.14428317 3.6368219 1.54740897 5.1875 4.625 C7.09792915 8.64924999 7.36706702 11.5951958 7 16 C3.56163057 12.23416682 2.45736821 7.76717434 1 3 C0.67 2.01 0.34 1.02 0 0 Z " fill="#E8D6AD" transform="translate(25,4)"/>
<path d="M0 0 C3.4375 0.8125 3.4375 0.8125 7 2 C7.33 2.99 7.66 3.98 8 5 C5.69 4.67 3.38 4.34 1 4 C0.67 4.66 0.34 5.32 0 6 C0 5.34 0 4.68 0 4 C-0.66 4 -1.32 4 -2 4 C-1.34 2.68 -0.68 1.36 0 0 Z " fill="#40A2D8" transform="translate(17,4)"/>
<path d="M0 0 C0.66 0 1.32 0 2 0 C1.57709963 1.96153791 1.13618382 3.91919875 0.6875 5.875 C0.44386719 6.96554688 0.20023437 8.05609375 -0.05078125 9.1796875 C-1 12 -1 12 -4 14 C-4.49940808 7.88225104 -3.24900602 4.97504047 0 0 Z " fill="#EBDAB0" transform="translate(4,5)"/>
<path d="M0 0 C2.375 -0.125 2.375 -0.125 5 0 C5.66 0.66 6.32 1.32 7 2 C6.625 4.125 6.625 4.125 6 6 C5.67 5.01 5.34 4.02 5 3 C3.68 3 2.36 3 1 3 C0.34 3.66 -0.32 4.32 -1 5 C-0.67 3.35 -0.34 1.7 0 0 Z " fill="#C09163" transform="translate(13,11)"/>
<path d="M0 0 C0.99 0 1.98 0 3 0 C3 0.99 3 1.98 3 3 C3.99 3 4.98 3 6 3 C5.67 3.99 5.34 4.98 5 6 C4.67 5.34 4.34 4.68 4 4 C2.02 4 0.04 4 -2 4 C-1.34 2.68 -0.68 1.36 0 0 Z " fill="#6DB6DD" transform="translate(8,6)"/>
<path d="M0 0 C3.3 0 6.6 0 10 0 C8.515 1.98 8.515 1.98 7 4 C5.68 3.67 4.36 3.34 3 3 C3 2.34 3 1.68 3 1 C2.01 0.67 1.02 0.34 0 0 Z " fill="#FDFCF9" transform="translate(11,25)"/>
<path d="M0 0 C1.94268841 2.91403262 3.46395304 5.85808576 5 9 C3.35 8.67 1.7 8.34 0 8 C0 5.36 0 2.72 0 0 Z " fill="#E5CB94" transform="translate(1,14)"/>
<path d="M0 0 C0.33 0 0.66 0 1 0 C1 2.64 1 5.28 1 8 C-0.32 7.34 -1.64 6.68 -3 6 C-2.01 4.02 -1.02 2.04 0 0 Z " fill="#E1C896" transform="translate(30,15)"/>
</svg>
