<?xml version="1.0" encoding="UTF-8"?>
<svg version="1.1" xmlns="http://www.w3.org/2000/svg" width="500" height="500">
<path d="M0 0 C0.64453125 0.29003906 1.2890625 0.58007812 1.953125 0.87890625 C3.95576563 1.69313116 3.95576563 1.69313116 6.75 0.4375 C8.60826242 0.67189446 10.46609067 0.91082864 12.3203125 1.17529297 C17.11352358 1.69256675 21.93490075 1.53917165 26.75 1.5 C27.81089844 1.49548828 28.87179688 1.49097656 29.96484375 1.48632812 C32.55995598 1.47463843 35.15494709 1.45825276 37.75 1.4375 C38.245 3.4175 38.245 3.4175 38.75 5.4375 C41.72 5.7675 44.69 6.0975 47.75 6.4375 C47.75 7.4275 47.75 8.4175 47.75 9.4375 C46.76 9.7675 45.77 10.0975 44.75 10.4375 C44.6008893 15.15130981 44.49243366 19.86372683 44.42041016 24.5793457 C44.39036726 26.18082613 44.34951883 27.78214379 44.29736328 29.38305664 C43.55724966 39.77658797 43.55724966 39.77658797 47.58984375 48.91015625 C52.42293918 53.28895421 57.31702486 54.79420249 63.75 55.4375 C62.75 58.4375 62.75 58.4375 61.1875 59.75 C57.38941729 60.8212541 54.29855676 59.87559932 50.75 58.4375 C47.03270343 56.32621991 43.21912463 54.11721229 40.3840332 50.87573242 C38.36182353 49.09583743 37.28737714 49.01109995 34.625 48.890625 C33.83609375 48.85066406 33.0471875 48.81070313 32.234375 48.76953125 C31.00460938 48.72892578 31.00460938 48.72892578 29.75 48.6875 C28.93015625 48.64496094 28.1103125 48.60242188 27.265625 48.55859375 C23.70297893 48.40141819 21.17409491 48.29613503 17.75 49.4375 C16.34175107 49.51771999 14.93002769 49.54515977 13.51953125 49.53515625 C12.71708984 49.53193359 11.91464844 49.52871094 11.08789062 49.52539062 C10.25451172 49.51701172 9.42113281 49.50863281 8.5625 49.5 C7.2950293 49.49323242 7.2950293 49.49323242 6.00195312 49.48632812 C3.91793845 49.47455403 1.83396023 49.4566189 -0.25 49.4375 C0.08 48.4475 0.41 47.4575 0.75 46.4375 C1.74 46.4375 2.73 46.4375 3.75 46.4375 C3.80496975 41.41921982 3.80741766 36.40461007 3.76220703 31.38623047 C3.75412 29.6811603 3.76012526 27.97596055 3.78076172 26.27099609 C4.22923887 16.68041904 4.22923887 16.68041904 1.078125 7.98095703 C-2.30756772 5.3136103 -5.89360574 3.69863732 -10.25 3.5625 C-11.013125 3.52382812 -11.77625 3.48515625 -12.5625 3.4453125 C-13.119375 3.44273437 -13.67625 3.44015625 -14.25 3.4375 C-14.58 2.4475 -14.91 1.4575 -15.25 0.4375 C-10.26057641 -2.7557311 -5.28120839 -2.1163666 0 0 Z M31.75 18.4375 C30.80125 19.241875 29.8525 20.04625 28.875 20.875 C27.17067644 22.31996997 25.75519014 23.43490493 23.75 24.4375 C25.22613985 25.94047876 26.70599157 27.43981285 28.1875 28.9375 C29.01121094 29.7728125 29.83492187 30.608125 30.68359375 31.46875 C32.39498098 33.55246531 32.39498098 33.55246531 33.75 33.4375 C33.75 28.8175 33.75 24.1975 33.75 19.4375 C33.09 19.1075 32.43 18.7775 31.75 18.4375 Z M14.75 23.4375 C14.75 25.7475 14.75 28.0575 14.75 30.4375 C15.41 29.4475 16.07 28.4575 16.75 27.4375 C16.09 26.1175 15.43 24.7975 14.75 23.4375 Z " fill="#FBD223" transform="translate(212.25,247.5625)"/>
<path d="M0 0 C-1 3 -1 3 -4 4.5625 C-4.99 5.036875 -5.98 5.51125 -7 6 C-7.33 6.66 -7.66 7.32 -8 8 C-8.66 8 -9.32 8 -10 8 C-10.21140625 8.6703125 -10.4228125 9.340625 -10.640625 10.03125 C-12.78240606 14.7087029 -16.11859121 18.50517812 -19.36328125 22.47265625 C-20.75672148 24.2735777 -21.98599555 25.96093134 -23 28 C-22.74626093 30.64981969 -22.74626093 30.64981969 -21 33 C-20.35546875 34.13695312 -19.7109375 35.27390625 -19.046875 36.4453125 C-18.28599825 37.67482614 -17.52025997 38.90134286 -16.75 40.125 C-16.38003906 40.74503906 -16.01007813 41.36507812 -15.62890625 42.00390625 C-13.00538997 46.16750717 -10.7105432 48.13484272 -6 50 C-6 50.66 -6 51.32 -6 52 C-12.6 52 -19.2 52 -26 52 C-26.33 51.34 -26.66 50.68 -27 50 C-26.34 50 -25.68 50 -25 50 C-27.5599744 43.77296162 -27.5599744 43.77296162 -31 38 C-31.66 38 -32.32 38 -33 38 C-34.27029706 39.51630159 -34.27029706 39.51630159 -35.50390625 41.5078125 C-35.99286377 42.24523682 -36.48182129 42.98266113 -36.9855957 43.74243164 C-37.50597412 44.5286792 -38.02635254 45.31492676 -38.5625 46.125 C-47.03223347 58.48681704 -47.03223347 58.48681704 -54 61 C-56.55502633 61.40218007 -58.40439289 61.3313541 -61 61 C-61 60.01 -61 59.02 -61 58 C-59.26363281 57.319375 -59.26363281 57.319375 -57.4921875 56.625 C-51.79775538 53.77401944 -48.7344319 49.09395631 -45.125 44 C-44.46242188 43.09765625 -43.79984375 42.1953125 -43.1171875 41.265625 C-40.45687456 37.61039828 -37.9202764 34.1053377 -36 30 C-37.60066918 27.72662933 -39.20535193 25.45628343 -40.8125 23.1875 C-41.49022461 22.22360352 -41.49022461 22.22360352 -42.18164062 21.24023438 C-42.62314453 20.61826172 -43.06464844 19.99628906 -43.51953125 19.35546875 C-43.92276611 18.78465576 -44.32600098 18.21384277 -44.74145508 17.62573242 C-47.00872929 14.69696832 -48.42011897 13.19329368 -52 12 C-52 11.01 -52 10.02 -52 9 C-45.4 9 -38.8 9 -32 9 C-32 12 -32 12 -33 14 C-32.00632202 16.02914845 -32.00632202 16.02914845 -30.5625 18.125 C-29.85287109 19.21167969 -29.85287109 19.21167969 -29.12890625 20.3203125 C-28.75636719 20.87460937 -28.38382812 21.42890625 -28 22 C-24.64828023 18.95298203 -22.1455917 15.83485281 -19.625 12.0625 C-15.27067955 5.72464963 -8.63253237 -2.87751079 0 0 Z " fill="#F29257" transform="translate(383,245)"/>
<path d="M0 0 C0.495 1.485 0.495 1.485 1 3 C-0.72526042 3.5859375 -2.45052083 4.171875 -4.17578125 4.7578125 C-6.95287107 6.64885011 -7.70416013 8.93535327 -9 12 C-9.44933375 15.24442845 -9.44933375 15.24442845 -9.40625 18.6484375 C-9.42816406 19.90140625 -9.45007813 21.154375 -9.47265625 22.4453125 C-9.48167969 23.74210937 -9.49070312 25.03890625 -9.5 26.375 C-9.63193169 45.22238436 -9.63193169 45.22238436 -14.34521484 50.50878906 C-19.71222567 55.30192545 -24.44382437 56.42285288 -31.44140625 56.24609375 C-38.83756121 55.53470785 -43.23659845 52.57666523 -48 47 C-49.12183708 43.63448877 -49.20800968 40.90939768 -49.31640625 37.36328125 C-49.35830078 36.06455078 -49.40019531 34.76582031 -49.44335938 33.42773438 C-49.48316987 32.05599239 -49.52288216 30.68424756 -49.5625 29.3125 C-49.60570835 27.92902355 -49.64932339 26.54555973 -49.69335938 25.16210938 C-49.79958028 21.77484281 -49.90162358 18.38750201 -50 15 C-50.99 14.67 -51.98 14.34 -53 14 C-52.67 13.34 -52.34 12.68 -52 12 C-46.39 12 -40.78 12 -35 12 C-35 12.99 -35 13.98 -35 15 C-35.99 15 -36.98 15 -38 15 C-37.93089442 19.03904921 -37.84281984 23.07720578 -37.73754883 27.11547852 C-37.70440194 28.48775958 -37.67633829 29.86017362 -37.65356445 31.23266602 C-37.61983234 33.21137766 -37.5659851 35.18971376 -37.51171875 37.16796875 C-37.48553467 38.35672607 -37.45935059 39.5454834 -37.43237305 40.77026367 C-36.96468107 44.263825 -36.09456428 46.19216035 -34 49 C-31.72751762 50.13624119 -30.21697236 50.26446843 -27.6875 50.375 C-26.92824219 50.42398438 -26.16898437 50.47296875 -25.38671875 50.5234375 C-21.75428013 49.72679793 -20.33695668 47.82809262 -18 45 C-17.27455443 41.76233198 -17.27455443 41.76233198 -17.3984375 38.23046875 C-17.38296875 36.92916016 -17.3675 35.62785156 -17.3515625 34.28710938 C-17.35744363 32.92056324 -17.36527039 31.55402415 -17.375 30.1875 C-17.4117097 11.00438978 -17.4117097 11.00438978 -12.24609375 4.94140625 C-11.64925781 4.48636719 -11.05242187 4.03132812 -10.4375 3.5625 C-9.83808594 3.08941406 -9.23867188 2.61632812 -8.62109375 2.12890625 C-5.60154443 0.02613576 -3.6415691 -0.09583077 0 0 Z " fill="#EEB28A" transform="translate(445,242)"/>
<path d="M0 0 C8.73286139 1.21958926 13.95626562 9.00056506 19.48046875 15.2890625 C24.02095436 20.17448423 29.02125444 24.56883221 34 29 C33.67 29.66 33.34 30.32 33 31 C32.34 31 31.68 31 31 31 C33.04132646 35.92319911 35.75479199 38.99983597 39.57421875 42.58203125 C40.04472656 43.04996094 40.51523438 43.51789063 41 44 C41 44.33 41 44.66 41 45 C39.73542969 45.06058594 38.47085938 45.12117188 37.16796875 45.18359375 C35.50780129 45.26800904 33.84764563 45.35265655 32.1875 45.4375 C31.35412109 45.47681641 30.52074219 45.51613281 29.66210938 45.55664062 C28.85966797 45.59853516 28.05722656 45.64042969 27.23046875 45.68359375 C26.12288208 45.73858032 26.12288208 45.73858032 24.99291992 45.79467773 C22.792505 45.94842141 22.792505 45.94842141 20 47 C18.59175107 47.08021999 17.18002769 47.10765977 15.76953125 47.09765625 C14.96708984 47.09443359 14.16464844 47.09121094 13.33789062 47.08789062 C12.50451172 47.07951172 11.67113281 47.07113281 10.8125 47.0625 C9.5450293 47.05573242 9.5450293 47.05573242 8.25195312 47.04882812 C6.16793845 47.03705403 4.08396023 47.0191189 2 47 C2.33 46.01 2.66 45.02 3 44 C3.99 44 4.98 44 6 44 C5.95578074 38.96396047 5.88587959 33.92916683 5.79248047 28.89379883 C5.76430914 27.1819858 5.74307548 25.47004363 5.72900391 23.75805664 C5.70752035 21.29246081 5.66084584 18.82841139 5.609375 16.36328125 C5.60814636 15.60163162 5.60691772 14.83998199 5.60565186 14.05525208 C5.46798848 9.02607441 4.40542732 6.64157308 1 3 C0.67 2.01 0.34 1.02 0 0 Z M17 21 C17 23.31 17 25.62 17 28 C17.66 27.01 18.32 26.02 19 25 C18.34 23.68 17.68 22.36 17 21 Z " fill="#FCD224" transform="translate(210,250)"/>
<path d="M0 0 C1.87751953 0.13535156 1.87751953 0.13535156 3.79296875 0.2734375 C6.8125 0.625 6.8125 0.625 7.8125 1.625 C7.95365161 4.29558851 7.85497107 6.94932238 7.8125 9.625 C6.8225 9.955 5.8325 10.285 4.8125 10.625 C4.1525 9.8 3.4925 8.975 2.8125 8.125 C-1.21116618 4.77194485 -3.09450467 5.19339023 -8.1875 5.625 C-8.83750274 8.38718762 -8.83750274 8.38718762 -8.1875 11.625 C-5.90101611 13.92781592 -3.20194679 15.51113564 -0.4375 17.1875 C10.63938732 24.10566196 10.63938732 24.10566196 12.8125 30.625 C13.26438624 35.32461689 12.92179408 38.91828979 10.3359375 42.98046875 C6.35054076 47.28265343 0.46562217 49.86313975 -5.375 50.125 C-12.24904809 49.2234855 -16.6905569 46.9155213 -21.1875 41.625 C-22.6081122 37.36316341 -23.29020083 32.91226155 -21.29296875 28.76953125 C-20.32989828 27.33683632 -19.26591247 25.97301559 -18.1875 24.625 C-17.5275 24.955 -16.8675 25.285 -16.1875 25.625 C-16.3525 26.12 -16.5175 26.615 -16.6875 27.125 C-17.71966562 32.2858281 -18.14259588 36.07708598 -15.375 40.5625 C-12.48281575 43.28941658 -10.70031294 43.59702839 -6.75 43.8125 C-2.54793744 43.7229072 -2.54793744 43.7229072 0.8125 41.625 C1.71244911 37.88674984 2.53396381 34.20034791 0.8125 30.625 C-0.51636364 29.94946789 -1.85108849 29.28547445 -3.1875 28.625 C-5.42300507 27.19538071 -7.62265858 25.7457399 -9.8125 24.25 C-10.39773438 23.86328125 -10.98296875 23.4765625 -11.5859375 23.078125 C-14.71622055 20.93861961 -17.00238919 19.29958888 -18.1875 15.625 C-18.64272199 10.61755812 -18.2986205 7.62501208 -15.1875 3.625 C-10.39151531 -0.70685714 -6.27719576 -0.48136009 0 0 Z " fill="#F67C32" transform="translate(477.1875,253.375)"/>
<path d="M0 0 C1.24523437 0.11085937 2.49046875 0.22171875 3.7734375 0.3359375 C5.18496094 0.47902344 5.18496094 0.47902344 6.625 0.625 C6.625 3.925 6.625 7.225 6.625 10.625 C5.635 10.625 4.645 10.625 3.625 10.625 C3.38910156 9.98175781 3.15320313 9.33851563 2.91015625 8.67578125 C1.81420147 6.42774424 1.81420147 6.42774424 -0.50390625 5.98046875 C-1.30699219 5.92503906 -2.11007813 5.86960937 -2.9375 5.8125 C-3.74316406 5.74417969 -4.54882812 5.67585938 -5.37890625 5.60546875 C-7.37543781 5.39205301 -7.37543781 5.39205301 -8.375 6.625 C-8.83941616 9.01884219 -8.83941616 9.01884219 -8.375 11.625 C-6.43612193 13.58623537 -6.43612193 13.58623537 -3.8125 15.125 C-2.90113281 15.72441406 -1.98976563 16.32382812 -1.05078125 16.94140625 C0.53026769 17.93619763 2.11482405 18.92551119 3.70703125 19.90234375 C8.37510378 22.92286127 11.07981679 26.20682511 12.625 31.625 C13.14807689 36.35072915 11.93283554 39.6942679 9.0625 43.4375 C4.74611605 47.94961497 -0.21346042 49.6758936 -6.375 50.0625 C-12.26716318 49.80732758 -16.85479816 47.26214044 -20.8125 43 C-23.47878448 38.94724759 -23.70170816 36.52562241 -23.375 31.625 C-21.875 28.1875 -21.875 28.1875 -20.375 25.625 C-19.385 25.625 -18.395 25.625 -17.375 25.625 C-17.48199219 26.36105469 -17.58898437 27.09710938 -17.69921875 27.85546875 C-18.51362927 33.87671209 -18.51362927 33.87671209 -17.1875 39.6875 C-14.72650115 42.31822291 -13.13236957 43.48730919 -9.48046875 43.7734375 C-5.97763779 43.83842509 -2.72990437 43.74330146 0.625 42.625 C1.66110964 38.16972853 1.78200627 35.68341354 -0.375 31.625 C-2.76585272 29.48164524 -2.76585272 29.48164524 -5.625 27.625 C-6.60855469 26.93792969 -7.59210937 26.25085938 -8.60546875 25.54296875 C-9.51941406 24.91003906 -10.43335938 24.27710938 -11.375 23.625 C-15.2341653 20.81213099 -18.30688452 18.49085939 -19.375 13.625 C-19.25966858 8.20442309 -17.20000494 5.36500483 -13.375 1.625 C-8.69913113 -0.43372788 -5.04582839 -0.47602155 0 0 Z " fill="#F09156" transform="translate(32.375,253.375)"/>
<path d="M0 0 C0 3.3 0 6.6 0 10 C-0.99 10 -1.98 10 -3 10 C-3.474375 9.34 -3.94875 8.68 -4.4375 8 C-4.953125 7.34 -5.46875 6.68 -6 6 C-7.32 6 -8.64 6 -10 6 C-10 10.62 -10 15.24 -10 20 C-6.37 19.67 -2.74 19.34 1 19 C1.66 17.35 2.32 15.7 3 14 C3.66 14.33 4.32 14.66 5 15 C5 19.29 5 23.58 5 28 C4.01 28.33 3.02 28.66 2 29 C1.67 27.68 1.34 26.36 1 25 C-2.63 24.67 -6.26 24.34 -10 24 C-10 28.62 -10 33.24 -10 38 C-7.4321875 38.061875 -7.4321875 38.061875 -4.8125 38.125 C-3.84957031 38.14820313 -2.88664062 38.17140625 -1.89453125 38.1953125 C2.04961362 37.92917587 4.8628931 37.24099074 7.58203125 34.2734375 C7.98808594 33.64695312 8.39414063 33.02046875 8.8125 32.375 C9.23144531 31.74335938 9.65039062 31.11171875 10.08203125 30.4609375 C10.38496094 29.97882813 10.68789062 29.49671875 11 29 C11.66 29.33 12.32 29.66 13 30 C12.49042339 35.01083671 11.91507725 38.21230687 10 43 C-1.22 43 -12.44 43 -24 43 C-24 42.01 -24 41.02 -24 40 C-23.01 40 -22.02 40 -21 40 C-21.06881974 34.92749086 -21.15675694 29.85581061 -21.26245117 24.78393555 C-21.29571172 23.05844307 -21.32374019 21.33284151 -21.34643555 19.60717773 C-21.37996153 17.12696834 -21.43227406 14.6477597 -21.48828125 12.16796875 C-21.49786613 11.01001045 -21.49786613 11.01001045 -21.50764465 9.82865906 C-21.58765754 5.61306923 -21.58765754 5.61306923 -23.53198242 1.98950195 C-24.01642822 1.66296631 -24.50087402 1.33643066 -25 1 C-22.6261652 -1.3738348 -16.82967823 -0.48163282 -13.625 -0.625 C-12.65304688 -0.6765625 -11.68109375 -0.728125 -10.6796875 -0.78125 C-9.74640625 -0.82507813 -8.813125 -0.86890625 -7.8515625 -0.9140625 C-6.99385254 -0.9548291 -6.13614258 -0.9955957 -5.25244141 -1.03759766 C-3 -1 -3 -1 0 0 Z " fill="#EEA577" transform="translate(88,254)"/>
<path d="M0 0 C0 3.63 0 7.26 0 11 C-0.66 11 -1.32 11 -2 11 C-2.680625 9.7625 -2.680625 9.7625 -3.375 8.5 C-3.91125 7.675 -4.4475 6.85 -5 6 C-6.32 6 -7.64 6 -9 6 C-9.33 10.62 -9.66 15.24 -10 20 C-8.39125 19.9175 -6.7825 19.835 -5.125 19.75 C-4.22007812 19.70359375 -3.31515625 19.6571875 -2.3828125 19.609375 C0.17110544 19.24388852 0.17110544 19.24388852 1.3203125 16.953125 C1.65675781 15.98632812 1.65675781 15.98632812 2 15 C2.99 15 3.98 15 5 15 C5 19.29 5 23.58 5 28 C4.01 28 3.02 28 2 28 C1.34 27.01 0.68 26.02 0 25 C-2.42521494 24.41810734 -2.42521494 24.41810734 -5.125 24.3125 C-6.73375 24.209375 -8.3425 24.10625 -10 24 C-9.67 28.62 -9.34 33.24 -9 38 C-0.0219088 38.47176877 -0.0219088 38.47176877 7.75 34.5625 C9.22378249 32.90482814 9.22378249 32.90482814 10 30 C10.99 30 11.98 30 13 30 C12.49042339 35.01083671 11.91507725 38.21230687 10 43 C-1.22 43 -12.44 43 -24 43 C-24.33 42.34 -24.66 41.68 -25 41 C-24.01 40.34 -23.02 39.68 -22 39 C-21.69559199 36.33978031 -21.57988713 33.91607671 -21.6015625 31.25390625 C-21.59869232 30.48698959 -21.59582214 29.72007294 -21.59286499 28.92991638 C-21.59082214 27.30670433 -21.5963675 25.68346779 -21.60888672 24.06030273 C-21.62491647 21.57544806 -21.60905805 19.09222528 -21.58984375 16.60742188 C-21.59182657 15.03124641 -21.59567106 13.45507195 -21.6015625 11.87890625 C-21.59245346 10.76316978 -21.59245346 10.76316978 -21.5831604 9.62489319 C-21.61438881 5.52274364 -21.61438881 5.52274364 -23.52490234 2.00756836 C-24.01168457 1.6750708 -24.4984668 1.34257324 -25 1 C-22.55850376 -1.44149624 -16.35975841 -0.48495405 -13.0625 -0.625 C-12.03447266 -0.6765625 -11.00644531 -0.728125 -9.94726562 -0.78125 C-8.96564453 -0.82507813 -7.98402344 -0.86890625 -6.97265625 -0.9140625 C-5.61539429 -0.9752124 -5.61539429 -0.9752124 -4.23071289 -1.03759766 C-2 -1 -2 -1 0 0 Z " fill="#EAA070" transform="translate(304,254)"/>
<path d="M0 0 C0 3.63 0 7.26 0 11 C-0.99 11 -1.98 11 -3 11 C-3.37125 10.071875 -3.7425 9.14375 -4.125 8.1875 C-6.39342593 4.33117593 -7.79352929 3.42861269 -12 2 C-17.32859769 1.23421351 -21.49609054 1.85773759 -26 5 C-30.16755177 11.75430804 -30.78900886 17.83977146 -29.3125 25.625 C-27.81714925 29.47018764 -26.15772793 31.38139635 -23 34 C-17.34057536 35.88647488 -11.25798258 35.65686766 -5.5625 34 C0.10004755 29.58045069 1.55190013 22.75779941 3 16 C3.99 16.33 4.98 16.66 6 17 C5.54752239 24.89495419 4.7464036 30.68597373 -1.3125 36.25 C-7.39657184 41.09190718 -13.43464986 41.69181668 -21 41 C-28.55734028 39.74424859 -33.9555947 36.7944128 -39 31 C-42.6859111 25.12557918 -42.95930572 18.75100191 -42 12 C-39.40254221 5.40480883 -34.8891579 1.44457895 -28.625 -1.6875 C-19.52923293 -4.98079497 -8.38483933 -5.35698069 0 0 Z " fill="#F6B992" transform="translate(159,257)"/>
<path d="M0 0 C0.33 0.99 0.66 1.98 1 3 C-0.72526042 3.5859375 -2.45052083 4.171875 -4.17578125 4.7578125 C-6.95287107 6.64885011 -7.70416013 8.93535327 -9 12 C-9.44933375 15.24442845 -9.44933375 15.24442845 -9.40625 18.6484375 C-9.42816406 19.90140625 -9.45007813 21.154375 -9.47265625 22.4453125 C-9.48167969 23.74210937 -9.49070312 25.03890625 -9.5 26.375 C-9.63481873 45.63481873 -9.63481873 45.63481873 -15 51 C-16.32 51 -17.64 51 -19 51 C-18.75902588 49.72745361 -18.75902588 49.72745361 -18.51318359 48.42919922 C-17.9931384 44.95414937 -17.84157909 41.64467906 -17.7890625 38.1328125 C-17.76070313 36.83472656 -17.73234375 35.53664063 -17.703125 34.19921875 C-17.66198447 32.16325234 -17.62503271 30.12752253 -17.59863281 28.09130859 C-17.35784162 10.94116378 -17.35784162 10.94116378 -12.24609375 4.94140625 C-11.64925781 4.48636719 -11.05242187 4.03132812 -10.4375 3.5625 C-9.83808594 3.08941406 -9.23867188 2.61632812 -8.62109375 2.12890625 C-5.60154443 0.02613576 -3.6415691 -0.09583077 0 0 Z " fill="#EF9E6A" transform="translate(445,242)"/>
<path d="M0 0 C0.33 0.99 0.66 1.98 1 3 C4.00007271 4.70855022 4.00007271 4.70855022 7 6 C7.103125 5.360625 7.20625 4.72125 7.3125 4.0625 C7.539375 3.381875 7.76625 2.70125 8 2 C8.99 1.67 9.98 1.34 11 1 C11 1.99 11 2.98 11 4 C10.01 4.495 10.01 4.495 9 5 C9 5.66 9 6.32 9 7 C8.34 7 7.68 7 7 7 C7 8.65 7 10.3 7 12 C7.73347656 12.02320313 8.46695312 12.04640625 9.22265625 12.0703125 C13.24320707 13.41615089 14.47195133 16.35178037 16.4375 19.875 C19.29798707 24.9959443 21.2787499 27.77735608 27 30 C27 30.66 27 31.32 27 32 C20.4 32 13.8 32 7 32 C6.67 31.34 6.34 30.68 6 30 C6.66 30 7.32 30 8 30 C7.525625 28.989375 7.05125 27.97875 6.5625 26.9375 C4.99463005 23.34019091 4.54350039 19.88214562 4 16 C3.34 15.67 2.68 15.34 2 15 C2 14.34 2 13.68 2 13 C1.34 13 0.68 13 0 13 C-0.33 10.36 -0.66 7.72 -1 5 C-1.99 5 -2.98 5 -4 5 C-3 2 -3 2 0 0 Z " fill="#FB7420" transform="translate(350,265)"/>
<path d="M0 0 C1.125 3.75 1.125 3.75 0 6 C-2.5625 6.625 -2.5625 6.625 -5 7 C-5 7.99 -5 8.98 -5 10 C-6.32 10 -7.64 10 -9 10 C-9 10.66 -9 11.32 -9 12 C-13.31818182 16.65909091 -13.31818182 16.65909091 -16 18 C-22.88365586 13.27977884 -28.36041112 7.95938332 -33 1 C-29.18763538 0.83013993 -25.37509074 0.66470036 -21.5625 0.5 C-20.49322266 0.45230469 -19.42394531 0.40460938 -18.32226562 0.35546875 C-12.20770603 0.09368332 -6.12009114 -0.05148342 0 0 Z " fill="#779966" transform="translate(250,249)"/>
<path d="M0 0 C-0.33 1.98 -0.66 3.96 -1 6 C-1.66 6 -2.32 6 -3 6 C-2.72108088 9.56361782 -2.42462266 13.12556791 -2.125 16.6875 C-2.04636719 17.69490234 -1.96773437 18.70230469 -1.88671875 19.74023438 C-1.80292969 20.71669922 -1.71914062 21.69316406 -1.6328125 22.69921875 C-1.55949707 23.59471436 -1.48618164 24.49020996 -1.41064453 25.4128418 C-0.97283463 28.17114826 -0.12791138 30.45316808 1 33 C-7.15836552 31.98892051 -7.15836552 31.98892051 -10.5 28.0625 C-12.6138997 23.74662144 -13.13657749 20.70163583 -13.125 15.9375 C-13.12757812 14.87402344 -13.13015625 13.81054688 -13.1328125 12.71484375 C-13 10 -13 10 -12 8 C-11.01 8 -10.02 8 -9 8 C-8.8453125 7.1028125 -8.8453125 7.1028125 -8.6875 6.1875 C-7.89363064 3.66155205 -7.04427591 2.65114593 -5 1 C-2 0 -2 0 0 0 Z " fill="#F87A2A" transform="translate(130,259)"/>
<path d="M0 0 C2.31 0 4.62 0 7 0 C7.02505615 1.08007324 7.0501123 2.16014648 7.07592773 3.27294922 C7.16995572 7.27242312 7.27018754 11.27172147 7.37231445 15.27099609 C7.4156808 17.00337626 7.45735463 18.73579963 7.49731445 20.46826172 C7.55497594 22.95553627 7.61868198 25.44259293 7.68359375 27.9296875 C7.70030624 28.70682098 7.71701874 29.48395447 7.73423767 30.28463745 C7.76473429 34.27274216 7.76473429 34.27274216 9 38 C5.7 38 2.4 38 -1 38 C-0.67 25.46 -0.34 12.92 0 0 Z " fill="#FA7522" transform="translate(285,257)"/>
<path d="M0 0 C2.31 0 4.62 0 7 0 C7.33 12.54 7.66 25.08 8 38 C5.03 38 2.06 38 -1 38 C-0.67 25.46 -0.34 12.92 0 0 Z " fill="#FA7522" transform="translate(69,257)"/>
<path d="M0 0 C2.64 0 5.28 0 8 0 C8 11.22 8 22.44 8 34 C8.99 34 9.98 34 11 34 C11.33 35.32 11.66 36.64 12 38 C9.3125 38.4375 9.3125 38.4375 6 38 C2.34207189 34.40013424 0.08803489 30.2572903 -0.11352539 25.08911133 C-0.10828857 23.9317749 -0.10305176 22.77443848 -0.09765625 21.58203125 C-0.09443359 20.32841797 -0.09121094 19.07480469 -0.08789062 17.78320312 C-0.07951172 16.47287109 -0.07113281 15.16253906 -0.0625 13.8125 C-0.05748317 12.47721519 -0.05292059 11.14192859 -0.04882812 9.80664062 C-0.03702695 6.53771527 -0.02056297 3.26888009 0 0 Z " fill="#F97523" transform="translate(398,256)"/>
<path d="M0 0 C0.66 0 1.32 0 2 0 C2 12.54 2 25.08 2 38 C6.455 37.505 6.455 37.505 11 37 C11 31.39 11 25.78 11 20 C14.63 20 18.26 20 22 20 C22 20.33 22 20.66 22 21 C18.7 21 15.4 21 12 21 C12.33 25.62 12.66 30.24 13 35 C21.9780912 35.47176877 21.9780912 35.47176877 29.75 31.5625 C31.22378249 29.90482814 31.22378249 29.90482814 32 27 C32.99 27 33.98 27 35 27 C34.49042339 32.01083671 33.91507725 35.21230687 32 40 C20.78 40 9.56 40 -2 40 C-2.33 39.34 -2.66 38.68 -3 38 C-2.01 37.34 -1.02 36.68 0 36 C0.2667616 33.23371085 0.34804189 30.69380369 0.29296875 27.9296875 C0.28872391 27.13345978 0.28447906 26.33723206 0.28010559 25.51687622 C0.26328834 22.96924271 0.22563179 20.42239511 0.1875 17.875 C0.17245705 16.14975099 0.15876796 14.42448961 0.14648438 12.69921875 C0.11337501 8.46584218 0.06157285 4.23305441 0 0 Z " fill="#F3BC98" transform="translate(282,257)"/>
<path d="M0 0 C0.64453125 0.29003906 1.2890625 0.58007812 1.953125 0.87890625 C3.95576563 1.69313116 3.95576563 1.69313116 6.75 0.4375 C9.45123106 0.59761121 12.06875231 1.04190608 14.75 1.4375 C14.75 1.7675 14.75 2.0975 14.75 2.4375 C10.295 2.9325 10.295 2.9325 5.75 3.4375 C6.52923828 4.21673828 6.52923828 4.21673828 7.32421875 5.01171875 C8.02160156 5.70910156 8.71898437 6.40648437 9.4375 7.125 C10.16839844 7.85332031 10.89929688 8.58164062 11.65234375 9.33203125 C13.28746639 10.97324373 14.89862875 12.63833915 16.5 14.3125 C18.54000383 16.23917028 20.17142754 17.38697048 22.75 18.4375 C23.36875 17.6125 23.9875 16.7875 24.625 15.9375 C25.32625 15.1125 26.0275 14.2875 26.75 13.4375 C27.41 13.4375 28.07 13.4375 28.75 13.4375 C28.75 12.7775 28.75 12.1175 28.75 11.4375 C30.4 11.4375 32.05 11.4375 33.75 11.4375 C33.75 14.0775 33.75 16.7175 33.75 19.4375 C32.96625 19.52 32.1825 19.6025 31.375 19.6875 C28.60250896 20.16556339 28.60250896 20.16556339 27.4375 22.5 C27.210625 23.139375 26.98375 23.77875 26.75 24.4375 C22.17757059 23.19107017 19.56925164 21.74254668 16.3125 18.3125 C15.54808594 17.51457031 14.78367188 16.71664063 13.99609375 15.89453125 C11.35337904 13.00363116 8.77066013 10.07089799 6.2578125 7.06640625 C4.64959955 5.2017126 4.64959955 5.2017126 1.75 3.4375 C0.76 3.4375 -0.23 3.4375 -1.25 3.4375 C-0.92 4.4275 -0.59 5.4175 -0.25 6.4375 C-0.889375 6.128125 -1.52875 5.81875 -2.1875 5.5 C-6.17049104 4.11814597 -10.06650849 3.7838457 -14.25 3.4375 C-14.58 2.4475 -14.91 1.4575 -15.25 0.4375 C-10.26057641 -2.7557311 -5.28120839 -2.1163666 0 0 Z " fill="#F2DA75" transform="translate(212.25,247.5625)"/>
<path d="M0 0 C0.99 0 1.98 0 3 0 C2.89300781 0.73605469 2.78601563 1.47210938 2.67578125 2.23046875 C1.86137073 8.25171209 1.86137073 8.25171209 3.1875 14.0625 C5.64849885 16.69322291 7.24263043 17.86230919 10.89453125 18.1484375 C14.56717254 18.21657556 17.37972474 17.90506881 21 17 C21.33 13.7 21.66 10.4 22 7 C24 9 24 9 24.1875 12.5 C24 16 24 16 23 18 C23.66 18.66 24.32 19.32 25 20 C21.69577581 23.79985782 19.18058329 23.90161806 14.25 24.3125 C9.51259692 24.24179249 5.87387134 22.67133922 2 20 C-1.13942137 16.61908468 -2.89432816 14.37373395 -3.25 9.75 C-2.98328301 5.74924521 -2.00671475 3.42813769 0 0 Z " fill="#F4BA94" transform="translate(12,279)"/>
<path d="M0 0 C0.66 0.33 1.32 0.66 2 1 C1.835 1.495 1.67 1.99 1.5 2.5 C0.46783438 7.6608281 0.04490412 11.45208598 2.8125 15.9375 C5.70468425 18.66441658 7.48718706 18.97202839 11.4375 19.1875 C15.63956256 19.0979072 15.63956256 19.0979072 19 17 C19.94284862 13.08355188 20.38087404 9.83576122 19 6 C20.5 7.0625 20.5 7.0625 22 9 C22.42196743 13.55724828 21.99584278 16.88357426 20 21 C21.32 21.33 22.64 21.66 24 22 C17.35317571 25.32341214 12.46693687 26.11647119 5.3125 23.8125 C0.81438322 21.35126629 -2.35236998 18.94289005 -4 14 C-4.51448832 7.72324248 -3.93042664 4.9130333 0 0 Z " fill="#ECA06F" transform="translate(459,278)"/>
<path d="M0 0 C1.24523437 0.11085937 2.49046875 0.22171875 3.7734375 0.3359375 C5.18496094 0.47902344 5.18496094 0.47902344 6.625 0.625 C6.625 3.925 6.625 7.225 6.625 10.625 C5.635 10.625 4.645 10.625 3.625 10.625 C3.38910156 9.98175781 3.15320313 9.33851563 2.91015625 8.67578125 C1.81420147 6.42774424 1.81420147 6.42774424 -0.50390625 5.98046875 C-1.30699219 5.92503906 -2.11007813 5.86960937 -2.9375 5.8125 C-3.74316406 5.74417969 -4.54882812 5.67585938 -5.37890625 5.60546875 C-7.37543781 5.39205301 -7.37543781 5.39205301 -8.375 6.625 C-8.87741322 8.9545947 -8.87741322 8.9545947 -8.375 11.625 C-5.97916349 14.43831378 -5.97916349 14.43831378 -3.375 16.625 C-4.65375 16.521875 -5.9325 16.41875 -7.25 16.3125 C-7.96929687 16.25449219 -8.68859375 16.19648438 -9.4296875 16.13671875 C-11.375 15.625 -11.375 15.625 -13.375 12.625 C-12.715 12.625 -12.055 12.625 -11.375 12.625 C-12.035 10.645 -12.695 8.665 -13.375 6.625 C-14.365 8.11 -14.365 8.11 -15.375 9.625 C-16.035 9.625 -16.695 9.625 -17.375 9.625 C-17.375 11.935 -17.375 14.245 -17.375 16.625 C-19.375 13.625 -19.375 13.625 -19.3125 10.8125 C-18.11107363 6.72765035 -16.41157033 4.59409099 -13.375 1.625 C-8.69913113 -0.43372788 -5.04582839 -0.47602155 0 0 Z " fill="#F7BC93" transform="translate(32.375,253.375)"/>
<path d="M0 0 C4.89434213 4.09526587 9.70720334 8.26357085 14 13 C14 13.33 14 13.66 14 14 C5.92481197 14.83447889 -1.95205147 15.38228124 -10 14 C-11 13 -11 13 -11.0625 10.4375 C-11.041875 9.633125 -11.02125 8.82875 -11 8 C-10.21625 7.87625 -9.4325 7.7525 -8.625 7.625 C-5.85942178 7.20882007 -5.85942178 7.20882007 -4 5 C-3.01 5 -2.02 5 -1 5 C-0.67 3.35 -0.34 1.7 0 0 Z " fill="#5D7C46" transform="translate(237,281)"/>
<path d="M0 0 C6.6 0 13.2 0 20 0 C20 3 20 3 19 5 C19.12375 6.670625 19.12375 6.670625 19.25 8.375 C19 12 19 12 16.5 14.4375 C15.675 14.953125 14.85 15.46875 14 16 C10.55421156 12.65555828 7.44019134 9.19591355 4.4296875 5.453125 C2.95268301 3.73174415 2.95268301 3.73174415 0 3 C0 2.01 0 1.02 0 0 Z " fill="#F67829" transform="translate(331,254)"/>
<path d="M0 0 C0 0.99 0 1.98 0 3 C-0.99 3.33 -1.98 3.66 -3 4 C-3 15.88 -3 27.76 -3 40 C-3.99 39.34 -4.98 38.68 -6 38 C-6.26686213 35.30459685 -6.34818073 32.84152536 -6.29296875 30.1484375 C-6.28872391 29.37440582 -6.28447906 28.60037415 -6.28010559 27.80288696 C-6.26328998 25.32657323 -6.22563395 22.85106842 -6.1875 20.375 C-6.17245682 18.69792841 -6.15876778 17.02084408 -6.14648438 15.34375 C-6.11337721 11.22885419 -6.06157637 7.11456431 -6 3 C-7.98 3 -9.96 3 -12 3 C-12 11.58 -12 20.16 -12 29 C-12.99 29.33 -13.98 29.66 -15 30 C-15.33 28.68 -15.66 27.36 -16 26 C-15.67 26 -15.34 26 -15 26 C-15 18.08 -15 10.16 -15 2 C-15.99 1.67 -16.98 1.34 -18 1 C-11.95170514 0.10395632 -6.1105424 -0.11269443 0 0 Z " fill="#E7CE5D" transform="translate(260,254)"/>
<path d="M0 0 C1.87751953 0.13535156 1.87751953 0.13535156 3.79296875 0.2734375 C6.8125 0.625 6.8125 0.625 7.8125 1.625 C7.95365161 4.29558851 7.85497107 6.94932238 7.8125 9.625 C6.8225 9.955 5.8325 10.285 4.8125 10.625 C4.1525 9.8 3.4925 8.975 2.8125 8.125 C-1.21116618 4.77194485 -3.09450467 5.19339023 -8.1875 5.625 C-8.5175 7.605 -8.8475 9.585 -9.1875 11.625 C-9.5175 11.625 -9.8475 11.625 -10.1875 11.625 C-9.8575 9.315 -9.5275 7.005 -9.1875 4.625 C-8.5275 4.625 -7.8675 4.625 -7.1875 4.625 C-7.1875 3.965 -7.1875 3.305 -7.1875 2.625 C-9.63230079 2.81328772 -9.63230079 2.81328772 -12.1875 3.625 C-13.46239266 5.42427039 -13.46239266 5.42427039 -14.1875 7.625 C-14.579375 8.264375 -14.97125 8.90375 -15.375 9.5625 C-16.45920354 12.31470898 -16.02907116 13.81976282 -15.1875 16.625 C-14.19666033 18.85908113 -14.19666033 18.85908113 -13.1875 20.625 C-16.1875 19.625 -16.1875 19.625 -17.375 18 C-18.84892095 13.69161568 -18.82399314 10.02528491 -16.9375 5.875 C-12.08381724 -0.36544926 -7.57137434 -0.5806028 0 0 Z " fill="#F2B58E" transform="translate(477.1875,253.375)"/>
<path d="M0 0 C0.9075 0.309375 1.815 0.61875 2.75 0.9375 C5.7576294 2.01686036 5.7576294 2.01686036 8 2.3125 C11.22125372 3.41980597 13.43401575 5.80822179 16 8 C19.46069427 10.23270598 22.94633885 10.53226987 27 11 C26 14 26 14 24.4375 15.3125 C20.63941729 16.3837541 17.54855676 15.43809932 14 14 C10.23926955 11.86405115 6.4247378 9.63380259 3.5625 6.3515625 C1.38305203 4.46634 -0.34737206 4.49692389 -3.1875 4.3125 C-4.08855469 4.24675781 -4.98960937 4.18101562 -5.91796875 4.11328125 C-6.60503906 4.07589844 -7.29210937 4.03851563 -8 4 C-8 3.67 -8 3.34 -8 3 C-3.545 2.505 -3.545 2.505 1 2 C0.67 1.34 0.34 0.68 0 0 Z " fill="#F4DF85" transform="translate(249,292)"/>
<path d="M0 0 C0.99 0.33 1.98 0.66 3 1 C2.54752239 8.89495419 1.7464036 14.68597373 -4.3125 20.25 C-10.41332126 25.10523692 -16.42124055 25.60444094 -24 25 C-26.74626846 24.48618203 -29.31546469 23.79541787 -32 23 C-29.22276075 22.21311555 -26.77389923 21.88050076 -23.890625 21.90234375 C-23.13652344 21.90556641 -22.38242188 21.90878906 -21.60546875 21.91210938 C-20.82816406 21.92048828 -20.05085937 21.92886719 -19.25 21.9375 C-18.45722656 21.94201172 -17.66445312 21.94652344 -16.84765625 21.95117188 C-14.89840492 21.96291435 -12.94919262 21.98084854 -11 22 C-11.91523438 21.95101563 -12.83046875 21.90203125 -13.7734375 21.8515625 C-15.55621094 21.73941406 -15.55621094 21.73941406 -17.375 21.625 C-18.55835938 21.55539062 -19.74171875 21.48578125 -20.9609375 21.4140625 C-24 21 -24 21 -26 19 C-25.05898437 19.03480469 -24.11796875 19.06960938 -23.1484375 19.10546875 C-21.90320313 19.13253906 -20.65796875 19.15960938 -19.375 19.1875 C-17.53035156 19.23970703 -17.53035156 19.23970703 -15.6484375 19.29296875 C-11.65862658 18.97258779 -9.35511972 18.15197183 -6 16 C-2.43075224 11.47828443 -1.18442406 5.52731227 0 0 Z " fill="#EFBD9B" transform="translate(162,273)"/>
<path d="M0 0 C4.83256305 0.41421969 6.82679218 2.46413986 10 6 C9.34 6 8.68 6 8 6 C8.33 6.66 8.66 7.32 9 8 C9.08667255 10.62627133 9.11560135 13.22562483 9.09765625 15.8515625 C9.0962413 16.62559418 9.09482635 17.39962585 9.09336853 18.19711304 C9.08776403 20.67311442 9.07521083 23.14902588 9.0625 25.625 C9.05748558 27.30208203 9.05292257 28.97916547 9.04882812 30.65625 C9.03779315 34.77086806 9.02052554 38.88541878 9 43 C7.515 43.495 7.515 43.495 6 44 C5.9906543 42.93563721 5.98130859 41.87127441 5.97167969 40.7746582 C5.93171343 36.81395089 5.86593701 32.85401493 5.79248047 28.89379883 C5.76430914 27.1819858 5.74307548 25.47004363 5.72900391 23.75805664 C5.70752035 21.29246081 5.66084584 18.82841139 5.609375 16.36328125 C5.60814636 15.60163162 5.60691772 14.83998199 5.60565186 14.05525208 C5.46798848 9.02607441 4.40542732 6.64157308 1 3 C0.67 2.01 0.34 1.02 0 0 Z " fill="#EFD476" transform="translate(210,250)"/>
<path d="M0 0 C3.25295114 -0.22179212 5.42797793 -0.28601103 8.375 1.1875 C10 3 10 3 10.25 5.6875 C10.1675 6.450625 10.085 7.21375 10 8 C10.66 8 11.32 8 12 8 C12.19491452 9.45736087 12.38069358 10.91594593 12.5625 12.375 C12.66691406 13.18710937 12.77132812 13.99921875 12.87890625 14.8359375 C13 17 13 17 12 19 C10.35 19 8.7 19 7 19 C6.97421875 18.37351562 6.9484375 17.74703125 6.921875 17.1015625 C6.86515625 16.28429687 6.8084375 15.46703125 6.75 14.625 C6.70359375 13.81289063 6.6571875 13.00078125 6.609375 12.1640625 C6.21830657 9.83148425 6.21830657 9.83148425 4.06640625 8.828125 C3.38449219 8.55484375 2.70257813 8.2815625 2 8 C0.1875 6.125 0.1875 6.125 -1 4 C-0.6875 1.75 -0.6875 1.75 0 0 Z " fill="#F97623" transform="translate(30,275)"/>
<path d="M0 0 C3.01442606 2.78802067 4.94644961 5.45055394 6.875 9.0625 C9.31452723 13.28810966 11.22089372 15.40696457 16 17 C16 17.66 16 18.32 16 19 C9.4 19 2.8 19 -4 19 C-4.33 18.34 -4.66 17.68 -5 17 C-4.34 17 -3.68 17 -3 17 C-3.99 14.03 -4.98 11.06 -6 8 C-5.34 7.67 -4.68 7.34 -4 7 C-3.8453125 7.928125 -3.8453125 7.928125 -3.6875 8.875 C-3.12474627 11.36526484 -3.12474627 11.36526484 0 13 C0 14.32 0 15.64 0 17 C0.99 17 1.98 17 3 17 C3.50512204 9.91674956 3.50512204 9.91674956 0 4 C0 2.68 0 1.36 0 0 Z " fill="#F2A16E" transform="translate(361,278)"/>
<path d="M0 0 C6.93 0 13.86 0 21 0 C19.91214096 4.35143616 19.24413811 5.0207114 15.9375 7.75 C14.83728516 8.67039062 14.83728516 8.67039062 13.71484375 9.609375 C13.14894531 10.06828125 12.58304688 10.5271875 12 11 C7.19126013 8.52277037 3.56825335 5.01042883 0 1 C0 0.67 0 0.34 0 0 Z " fill="#305E1B" transform="translate(217,250)"/>
<path d="M0 0 C0.66 1.32 1.32 2.64 2 4 C2 3.01 2 2.02 2 1 C4 1 4 1 5.76171875 2.5390625 C10.93531447 8.14291668 10.93531447 8.14291668 11.25 12.3125 C9.68900442 15.66864049 8.35472254 16.51768074 5 18 C2.75 18.75 2.75 18.75 1 19 C0 18 0 18 -0.11352539 16.23413086 C-0.10828857 15.48526611 -0.10305176 14.73640137 -0.09765625 13.96484375 C-0.09443359 13.15595703 -0.09121094 12.34707031 -0.08789062 11.51367188 C-0.07951172 10.66353516 -0.07113281 9.81339844 -0.0625 8.9375 C-0.05798828 8.08349609 -0.05347656 7.22949219 -0.04882812 6.34960938 C-0.03700373 4.23304337 -0.01906769 2.11651315 0 0 Z " fill="#8FA37A" transform="translate(226,271)"/>
<path d="M0 0 C0 3.3 0 6.6 0 10 C-0.99 10 -1.98 10 -3 10 C-3.474375 9.34 -3.94875 8.68 -4.4375 8 C-4.953125 7.34 -5.46875 6.68 -6 6 C-7.32 6 -8.64 6 -10 6 C-10 10.62 -10 15.24 -10 20 C-6.37 19.67 -2.74 19.34 1 19 C1.66 17.35 2.32 15.7 3 14 C3.66 14.33 4.32 14.66 5 15 C5 19.29 5 23.58 5 28 C4.01 28.33 3.02 28.66 2 29 C1.67 27.68 1.34 26.36 1 25 C1.66 25 2.32 25 3 25 C2.505 22.525 2.505 22.525 2 20 C1.34 20.33 0.68 20.66 0 21 C-3.67015275 21.1377685 -7.32611348 21.04271961 -11 21 C-11 15.39 -11 9.78 -11 4 C-8.69 4 -6.38 4 -4 4 C-3.34 4.66 -2.68 5.32 -2 6 C-1.67 4.35 -1.34 2.7 -1 1 C-1.62044189 1.03029297 -2.24088379 1.06058594 -2.88012695 1.09179688 C-5.69088218 1.22861169 -8.50168985 1.36431836 -11.3125 1.5 C-12.28896484 1.54769531 -13.26542969 1.59539062 -14.27148438 1.64453125 C-15.67817383 1.71220703 -15.67817383 1.71220703 -17.11328125 1.78125 C-17.97735596 1.82314453 -18.84143066 1.86503906 -19.73168945 1.90820312 C-21.48662304 1.97922401 -23.24362992 2 -25 2 C-24.67 1.34 -24.34 0.68 -24 0 C-20.56296699 -0.19682269 -17.12536573 -0.38085152 -13.6875 -0.5625 C-12.71103516 -0.61857422 -11.73457031 -0.67464844 -10.72851562 -0.73242188 C-9.32182617 -0.80493164 -9.32182617 -0.80493164 -7.88671875 -0.87890625 C-7.02264404 -0.9260376 -6.15856934 -0.97316895 -5.26831055 -1.02172852 C-3 -1 -3 -1 0 0 Z " fill="#FDDAB9" transform="translate(88,254)"/>
<path d="M0 0 C5.47035213 3.79037089 9.89962427 7.75027653 14 13 C13.01 13.33 12.02 13.66 11 14 C11.33 15.32 11.66 16.64 12 18 C7.82556637 14.49925018 3.6854506 11.02049157 0 7 C0 6.34 0 5.68 0 5 C-1.32 4.67 -2.64 4.34 -4 4 C-4 11.59 -4 19.18 -4 27 C-4.33 27 -4.66 27 -5 27 C-5 18.42 -5 9.84 -5 1 C-4.01 1 -3.02 1 -2 1 C-2 1.66 -2 2.32 -2 3 C-1.34 3 -0.68 3 0 3 C0 2.01 0 1.02 0 0 Z " fill="#F2D143" transform="translate(230,267)"/>
<path d="M0 0 C0.33 0.99 0.66 1.98 1 3 C-0.72526042 3.5859375 -2.45052083 4.171875 -4.17578125 4.7578125 C-6.95287107 6.64885011 -7.70416013 8.93535327 -9 12 C-9.44933375 15.24442845 -9.44933375 15.24442845 -9.40625 18.6484375 C-9.42816406 19.90140625 -9.45007813 21.154375 -9.47265625 22.4453125 C-9.48167969 23.74210937 -9.49070312 25.03890625 -9.5 26.375 C-9.6115176 42.30608625 -9.6115176 42.30608625 -13 49 C-13.99 49.495 -13.99 49.495 -15 50 C-14.51563477 48.72745361 -14.51563477 48.72745361 -14.02148438 47.42919922 C-12.95064156 43.83430002 -12.71580885 40.87526469 -12.65625 37.1328125 C-12.62660156 35.83472656 -12.59695313 34.53664063 -12.56640625 33.19921875 C-12.54321118 31.84116352 -12.52108331 30.48308966 -12.5 29.125 C-12.24981926 13.09418816 -12.24981926 13.09418816 -10 6 C-10.66 5.67 -11.32 5.34 -12 5 C-7.65430977 1.45483165 -5.6329135 -0.14823457 0 0 Z " fill="#F8CA9D" transform="translate(445,242)"/>
<path d="M0 0 C-0.33 1.98 -0.66 3.96 -1 6 C-1.66 6 -2.32 6 -3 6 C-2.67 12.6 -2.34 19.2 -2 26 C-2.66 24.68 -3.32 23.36 -4 22 C-4.33 21.67 -4.66 21.34 -5 21 C-5.23192865 19.48530552 -5.41215238 17.96245438 -5.5625 16.4375 C-5.64628906 15.61121094 -5.73007813 14.78492188 -5.81640625 13.93359375 C-5.87699219 13.29550781 -5.93757813 12.65742188 -6 12 C-7.98 12 -9.96 12 -12 12 C-12 15.3 -12 18.6 -12 22 C-12.33 22 -12.66 22 -13 22 C-13.02694851 20.04174127 -13.04637218 18.08337774 -13.0625 16.125 C-13.07410156 15.03445313 -13.08570312 13.94390625 -13.09765625 12.8203125 C-13 10 -13 10 -12 8 C-11.01 8 -10.02 8 -9 8 C-8.8453125 7.1028125 -8.8453125 7.1028125 -8.6875 6.1875 C-7.89363064 3.66155205 -7.04427591 2.65114593 -5 1 C-2 0 -2 0 0 0 Z " fill="#F5823C" transform="translate(130,259)"/>
<path d="M0 0 C0.99 1.32 1.98 2.64 3 4 C3.66 3.67 4.32 3.34 5 3 C2.53237381 8.55215892 -0.78603896 12.4118749 -6.1171875 15.28515625 C-9.09415221 16.41541463 -11.87030327 16.25548545 -15 16 C-15 15.01 -15 14.02 -15 13 C-13.824375 12.525625 -12.64875 12.05125 -11.4375 11.5625 C-6.14766634 8.96944428 -3.262276 4.77107865 0 0 Z " fill="#F3B48D" transform="translate(337,290)"/>
<path d="M0 0 C0.33 0 0.66 0 1 0 C2 7.75 2 7.75 2 10 C2.56589844 10.10957031 3.13179687 10.21914063 3.71484375 10.33203125 C4.44832031 10.49058594 5.18179687 10.64914062 5.9375 10.8125 C6.66839844 10.96332031 7.39929688 11.11414063 8.15234375 11.26953125 C8.76207031 11.51058594 9.37179688 11.75164062 10 12 C10.33 12.99 10.66 13.98 11 15 C10.34 15 9.68 15 9 15 C9 15.66 9 16.32 9 17 C7.35 17.33 5.7 17.66 4 18 C3.67 17.01 3.34 16.02 3 15 C1.68 15 0.36 15 -1 15 C-2.75 13.9375 -2.75 13.9375 -4 12 C-4.66073871 5.83310534 -4.66073871 5.83310534 -2.5625 3.1875 C-2.046875 2.795625 -1.53125 2.40375 -1 2 C-0.67 1.34 -0.34 0.68 0 0 Z " fill="#F87523" transform="translate(19,258)"/>
<path d="M0 0 C1.65 0 3.3 0 5 0 C5 2.64 5 5.28 5 8 C4.21625 8.0825 3.4325 8.165 2.625 8.25 C-0.14749104 8.72806339 -0.14749104 8.72806339 -1.3125 11.0625 C-1.539375 11.701875 -1.76625 12.34125 -2 13 C-5.68802044 11.77065985 -6.72356973 10.06140622 -9 7 C-8.01 7 -7.02 7 -6 7 C-4.64172029 5.35360035 -3.30745749 3.68704193 -2 2 C-1.34 2 -0.68 2 0 2 C0 1.34 0 0.68 0 0 Z " fill="#ACBEA3" transform="translate(241,259)"/>
<path d="M0 0 C5.62892994 1.82112439 9.64001618 4.91469148 12.875 9.875 C14.41511574 14.15309927 15.02348224 17.73150258 13.09765625 22 C12.13123071 23.70586144 11.07203282 25.35844975 10 27 C9.01 27 8.02 27 7 27 C7.515625 26.113125 8.03125 25.22625 8.5625 24.3125 C11.00931373 18.77858483 9.72747454 12.82856104 9 7 C7.68 6.67 6.36 6.34 5 6 C5 5.34 5 4.68 5 4 C3.35 3.67 1.7 3.34 0 3 C0 2.01 0 1.02 0 0 Z " fill="#EE9F6B" transform="translate(476,271)"/>
<path d="M0 0 C-1 3 -1 3 -4 4.5625 C-4.99 5.036875 -5.98 5.51125 -7 6 C-7.33 6.66 -7.66 7.32 -8 8 C-8.66 8 -9.32 8 -10 8 C-10.433125 9.2065625 -10.433125 9.2065625 -10.875 10.4375 C-12 13 -12 13 -14 14 C-13.67 12.02 -13.34 10.04 -13 8 C-15.475 9.485 -15.475 9.485 -18 11 C-15.53327657 5.41359695 -11.27326342 2.0054819 -5.75 -0.4375 C-3 -1 -3 -1 0 0 Z " fill="#F3B58E" transform="translate(383,245)"/>
<path d="M0 0 C0.66 0.33 1.32 0.66 2 1 C1.48474397 6.28137429 -0.25477117 9.57221156 -3 14 C-5.33294775 14.04241723 -7.66702567 14.04092937 -10 14 C-11 13 -11 13 -11.0625 10.4375 C-11.041875 9.633125 -11.02125 8.82875 -11 8 C-10.21625 7.87625 -9.4325 7.7525 -8.625 7.625 C-5.85942178 7.20882007 -5.85942178 7.20882007 -4 5 C-3.01 5 -2.02 5 -1 5 C-0.67 3.35 -0.34 1.7 0 0 Z " fill="#6F8A4F" transform="translate(237,281)"/>
<path d="M0 0 C0.66 0.33 1.32 0.66 2 1 C1.835 1.495 1.67 1.99 1.5 2.5 C0.66000867 6.69995665 -0.00964356 10.9101701 1.89453125 14.8515625 C2.85660857 16.28617956 3.92093647 17.65117059 5 19 C4.01 18.67 3.02 18.34 2 18 C1.67 18.66 1.34 19.32 1 20 C0.34 20 -0.32 20 -1 20 C-3.81657497 15.30570838 -5.01479891 11.38377528 -4 6 C-2.87556291 3.70244889 -1.61322701 2.01653376 0 0 Z " fill="#ECAD86" transform="translate(459,278)"/>
<path d="M0 0 C2.31 0 4.62 0 7 0 C7.33 0.99 7.66 1.98 8 3 C8.66 3.66 9.32 4.32 10 5 C8.02 5.99 8.02 5.99 6 7 C8.97 7.495 8.97 7.495 12 8 C11.67 9.98 11.34 11.96 11 14 C8.09744268 13.33655833 6.39926161 12.54558192 4.625 10.12109375 C3.76334759 8.68757084 2.92509561 7.23966733 2.11328125 5.77734375 C1.11480478 3.84048263 1.11480478 3.84048263 -1 3 C-0.67 2.01 -0.34 1.02 0 0 Z " fill="#F57728" transform="translate(469,271)"/>
<path d="M0 0 C2.54232342 -0.08152344 5.08199202 -0.14073716 7.625 -0.1875 C8.33785156 -0.21263672 9.05070313 -0.23777344 9.78515625 -0.26367188 C14.62276416 -0.33024446 17.74738338 0.44440547 22 3 C22 5.97 22 8.94 22 12 C19 8.25 19 8.25 19 6 C18.21625 5.690625 17.4325 5.38125 16.625 5.0625 C14 4 14 4 12 3 C9.44014782 2.7275833 6.88070064 2.55435019 4.3125 2.37890625 C2 2 2 2 0 0 Z " fill="#E48244" transform="translate(136,255)"/>
<path d="M0 0 C0.33 0 0.66 0 1 0 C1 5.61 1 11.22 1 17 C2.753125 16.855625 4.50625 16.71125 6.3125 16.5625 C7.29863281 16.48128906 8.28476563 16.40007812 9.30078125 16.31640625 C12.09375599 16.08187441 12.09375599 16.08187441 15 15 C15 16.98 15 18.96 15 21 C14.01 20.67 13.02 20.34 12 20 C10.10787263 19.77820215 8.21115528 19.59385985 6.3125 19.4375 C4.559375 19.293125 2.80625 19.14875 1 19 C1 24.28 1 29.56 1 35 C0.67 35 0.34 35 0 35 C0 23.45 0 11.9 0 0 Z " fill="#DA834B" transform="translate(76,258)"/>
<path d="M0 0 C0 0.66 0 1.32 0 2 C-0.66 2 -1.32 2 -2 2 C-2 2.66 -2 3.32 -2 4 C-2.66 4 -3.32 4 -4 4 C-4.33 5.98 -4.66 7.96 -5 10 C-4.01 10.33 -3.02 10.66 -2 11 C-2 11.99 -2 12.98 -2 14 C-3.65 14.33 -5.3 14.66 -7 15 C-7 14.34 -7 13.68 -7 13 C-7.99 12.67 -8.98 12.34 -10 12 C-9.54726428 7.133091 -8.35474936 4.5580675 -5 1 C-3 0 -3 0 0 0 Z " fill="#F57829" transform="translate(470,256)"/>
<path d="M0 0 C3.3 0 6.6 0 10 0 C10 0.99 10 1.98 10 3 C9.01 3.33 8.02 3.66 7 4 C7 15.88 7 27.76 7 40 C6.34 39.67 5.68 39.34 5 39 C5 26.79 5 14.58 5 2 C3.35 2 1.7 2 0 2 C0 1.34 0 0.68 0 0 Z " fill="#EFDE90" transform="translate(250,254)"/>
<path d="M0 0 C1.1446875 0.2784375 1.1446875 0.2784375 2.3125 0.5625 C5.08967375 1.22819173 5.08967375 1.22819173 8 0 C10.70123106 0.16011121 13.31875231 0.60440608 16 1 C16 1.33 16 1.66 16 2 C11.545 2.495 11.545 2.495 7 3 C7.51949219 3.51949219 8.03898438 4.03898438 8.57421875 4.57421875 C10.01888036 6.01888036 11.46285954 7.46422461 12.90625 8.91015625 C14.4904481 10.49139875 16.08626957 12.06100749 17.6875 13.625 C20.29542263 16.30340703 22.64063876 19.1013562 25 22 C22 22 22 22 19.984375 20.3125 C19.24703125 19.549375 18.5096875 18.78625 17.75 18 C16.95464844 17.18144531 16.15929687 16.36289062 15.33984375 15.51953125 C13.26707131 13.28758096 11.27878721 11.01288643 9.3125 8.6875 C6.49691332 5.38510628 3.69109461 3.25066744 0 1 C0 0.67 0 0.34 0 0 Z " fill="#DFDEA3" transform="translate(211,248)"/>
<path d="M0 0 C0.33 0.66 0.66 1.32 1 2 C0.67 2.66 0.34 3.32 0 4 C0.99 4.33 1.98 4.66 3 5 C-3.06306162 8.5929254 -7.92801395 10.0343381 -15 9 C-16.32 8.34 -17.64 7.68 -19 7 C-14.05 7 -9.1 7 -4 7 C-4 6.34 -4 5.68 -4 5 C-6.97 5 -9.94 5 -13 5 C-13 4.67 -13 4.34 -13 4 C-12.39671875 3.96261719 -11.7934375 3.92523438 -11.171875 3.88671875 C-5.00632228 3.43746659 -5.00632228 3.43746659 0 0 Z " fill="#F4C4A7" transform="translate(426,289)"/>
<path d="M0 0 C2 2 2 2 2.1875 5.5 C2 9 2 9 1 11 C1.66 11.66 2.32 12.32 3 13 C1.75 14.5 1.75 14.5 0 16 C-1.32 16 -2.64 16 -4 16 C-4 15.34 -4 14.68 -4 14 C-4.71027344 13.95101563 -5.42054687 13.90203125 -6.15234375 13.8515625 C-7.07144531 13.77679688 -7.99054687 13.70203125 -8.9375 13.625 C-9.85402344 13.55539062 -10.77054688 13.48578125 -11.71484375 13.4140625 C-12.84599609 13.20910156 -12.84599609 13.20910156 -14 13 C-14.33 12.34 -14.66 11.68 -15 11 C-14.32453125 11.01160156 -13.6490625 11.02320313 -12.953125 11.03515625 C-12.06109375 11.04417969 -11.1690625 11.05320312 -10.25 11.0625 C-9.36828125 11.07410156 -8.4865625 11.08570313 -7.578125 11.09765625 C-4.73046524 11.07827821 -4.73046524 11.07827821 -1 10 C-0.67 6.7 -0.34 3.4 0 0 Z " fill="#F2AB7F" transform="translate(34,286)"/>
<path d="M0 0 C0.33 0 0.66 0 1 0 C1 8.25 1 16.5 1 25 C-0.32 25.33 -1.64 25.66 -3 26 C-3 26.66 -3 27.32 -3 28 C-1.68 28 -0.36 28 1 28 C1 29.65 1 31.3 1 33 C-5.70459519 27.9059081 -5.70459519 27.9059081 -6.9375 24.125 C-6.958125 23.42375 -6.97875 22.7225 -7 22 C-6.01 21.67 -5.02 21.34 -4 21 C-3.34 21.99 -2.68 22.98 -2 24 C-1.34 24 -0.68 24 0 24 C0 16.08 0 8.16 0 0 Z " fill="#F3D030" transform="translate(248,259)"/>
<path d="M0 0 C-0.38728235 5.71241466 -0.87010523 8.73688282 -5 13 C-5.99 12.67 -6.98 12.34 -8 12 C-7.63243243 4.64864865 -7.63243243 4.64864865 -4.5625 1.5 C-2 0 -2 0 0 0 Z " fill="#F0965B" transform="translate(370,253)"/>
<path d="M0 0 C1.66666667 1.66666667 3.33333333 3.33333333 5 5 C5.928125 5.845625 6.85625 6.69125 7.8125 7.5625 C10 10 10 10 10 14 C9.34 14 8.68 14 8 14 C8 13.34 8 12.68 8 12 C7.05125 11.855625 6.1025 11.71125 5.125 11.5625 C2 11 2 11 0 10 C0 9.34 0 8.68 0 8 C0.66 7.67 1.32 7.34 2 7 C2.33 6.01 2.66 5.02 3 4 C2.01 4 1.02 4 0 4 C0 2.68 0 1.36 0 0 Z " fill="#F9D22A" transform="translate(220,256)"/>
<path d="M0 0 C1.25541557 3.76624671 0.37061958 5.37188934 -1 9 C-1.66 9 -2.32 9 -3 9 C-3 18.57 -3 28.14 -3 38 C-3.33 38 -3.66 38 -4 38 C-4.09900135 33.23118124 -4.17152928 28.4629627 -4.21972656 23.69335938 C-4.23982144 22.07150857 -4.26710254 20.44973003 -4.30175781 18.828125 C-4.3503727 16.4946102 -4.37298889 14.16205443 -4.390625 11.828125 C-4.41127014 11.10506165 -4.43191528 10.38199829 -4.45318604 9.63702393 C-4.45477743 6.05310029 -4.27262136 4.33522038 -1.97558594 1.51074219 C-1.32364258 1.01219727 -0.67169922 0.51365234 0 0 Z " fill="#F87726" transform="translate(435,247)"/>
<path d="M0 0 C0.66 1.32 1.32 2.64 2 4 C2 3.01 2 2.02 2 1 C2.66 1 3.32 1 4 1 C5.32 3.31 6.64 5.62 8 8 C7.01 9.485 7.01 9.485 6 11 C3.375 11.1875 3.375 11.1875 1 11 C-0.20272819 8.59454362 -0.10071472 7.05003047 -0.0625 4.375 C-0.05347656 3.55773437 -0.04445312 2.74046875 -0.03515625 1.8984375 C-0.02355469 1.27195312 -0.01195312 0.64546875 0 0 Z " fill="#BEC1A6" transform="translate(226,271)"/>
<path d="M0 0 C0 3.3 0 6.6 0 10 C-0.99 10 -1.98 10 -3 10 C-3.66 8.35 -4.32 6.7 -5 5 C-4.01 5.33 -3.02 5.66 -2 6 C-1.67 4.35 -1.34 2.7 -1 1 C-1.62044189 1.03029297 -2.24088379 1.06058594 -2.88012695 1.09179688 C-5.69088218 1.22861169 -8.50168985 1.36431836 -11.3125 1.5 C-12.28896484 1.54769531 -13.26542969 1.59539062 -14.27148438 1.64453125 C-15.67817383 1.71220703 -15.67817383 1.71220703 -17.11328125 1.78125 C-17.97735596 1.82314453 -18.84143066 1.86503906 -19.73168945 1.90820312 C-21.48662304 1.97922401 -23.24362992 2 -25 2 C-24.67 1.34 -24.34 0.68 -24 0 C-20.56296699 -0.19682269 -17.12536573 -0.38085152 -13.6875 -0.5625 C-12.71103516 -0.61857422 -11.73457031 -0.67464844 -10.72851562 -0.73242188 C-9.32182617 -0.80493164 -9.32182617 -0.80493164 -7.88671875 -0.87890625 C-7.02264404 -0.9260376 -6.15856934 -0.97316895 -5.26831055 -1.02172852 C-3 -1 -3 -1 0 0 Z " fill="#FADFC5" transform="translate(88,254)"/>
<path d="M0 0 C1.5 1.0625 1.5 1.0625 3 3 C3.42196743 7.55724828 2.99584278 10.88357426 1 15 C2.32 15.33 3.64 15.66 5 16 C1.27842266 17.29246898 -1.77768243 16.79108594 -5.625 16.1875 C-6.77226562 16.01605469 -7.91953125 15.84460938 -9.1015625 15.66796875 C-12 15 -12 15 -14 13 C-12.98679687 13.03480469 -12.98679687 13.03480469 -11.953125 13.0703125 C-11.06109375 13.08835937 -10.1690625 13.10640625 -9.25 13.125 C-8.36828125 13.14820313 -7.4865625 13.17140625 -6.578125 13.1953125 C-3.82459084 12.98671143 -2.2600772 12.57846662 0 11 C0.94284862 7.08355188 1.38087404 3.83576122 0 0 Z " fill="#F4B48A" transform="translate(478,284)"/>
<path d="M0 0 C0.89267578 0.09667969 1.78535156 0.19335938 2.70507812 0.29296875 C3.63384766 0.40511719 4.56261719 0.51726562 5.51953125 0.6328125 C6.45990234 0.73722656 7.40027344 0.84164063 8.36914062 0.94921875 C10.69145755 1.20856379 13.01204962 1.47846454 15.33203125 1.7578125 C15.00203125 2.4178125 14.67203125 3.0778125 14.33203125 3.7578125 C11.60259588 3.81197991 8.87424561 3.85156475 6.14453125 3.8828125 C4.99114258 3.90794922 4.99114258 3.90794922 3.81445312 3.93359375 C-0.48291215 3.97048101 -3.74698706 3.7536629 -7.66796875 1.7578125 C-4.3304919 -0.46717207 -3.78107918 -0.43349952 0 0 Z " fill="#E88345" transform="translate(136.66796875,292.2421875)"/>
<path d="M0 0 C6.27 0 12.54 0 19 0 C19 2.64 19 5.28 19 8 C18.360625 7.175 17.72125 6.35 17.0625 5.5 C12.97615535 2.16420845 10.07127064 2.5028166 5 3 C5 2.34 5 1.68 5 1 C3.02 1.33 1.04 1.66 -1 2 C-0.67 1.34 -0.34 0.68 0 0 Z " fill="#E18850" transform="translate(19,255)"/>
<path d="M0 0 C1.32 0.66 2.64 1.32 4 2 C4 2.66 4 3.32 4 4 C6.97 4 9.94 4 13 4 C13 4.66 13 5.32 13 6 C10.24894578 6.10812003 7.50214913 6.18734945 4.75 6.25 C3.58404297 6.30027344 3.58404297 6.30027344 2.39453125 6.3515625 C-3.42997175 6.45112665 -3.42997175 6.45112665 -6.546875 3.984375 C-7.26617187 3.00210937 -7.26617187 3.00210937 -8 2 C-3.545 2.99 -3.545 2.99 1 4 C0.67 2.68 0.34 1.36 0 0 Z " fill="#ED8F54" transform="translate(409,290)"/>
<path d="M0 0 C2.64 0 5.28 0 8 0 C8 1.98 8 3.96 8 6 C8.66 6 9.32 6 10 6 C10 6.66 10 7.32 10 8 C6.5625 7.1875 6.5625 7.1875 3 6 C2.67 5.01 2.34 4.02 2 3 C1.34 3 0.68 3 0 3 C0 2.01 0 1.02 0 0 Z " fill="#FC741C" transform="translate(339,257)"/>
<path d="M0 0 C3.83953399 1.27984466 5.65316744 3.81501296 8 7 C4.7 7 1.4 7 -2 7 C-3 4 -3 4 -2 1 C-1.34 0.67 -0.68 0.34 0 0 Z " fill="#395A14" transform="translate(243,288)"/>
<path d="M0 0 C2.9297008 2.82506863 5.50174717 5.78796065 8 9 C6.68596724 9.70394612 5.3479743 10.36345658 4 11 C3.360625 11.309375 2.72125 11.61875 2.0625 11.9375 C0 12 0 12 -2.75 9.5625 C-3.4925 8.716875 -4.235 7.87125 -5 7 C-2.36 7.66 0.28 8.32 3 9 C2.505 8.2575 2.01 7.515 1.5 6.75 C0 4 0 4 0 0 Z " fill="#EF9C63" transform="translate(128,283)"/>
<path d="M0 0 C1.70790201 0.13076125 3.41627376 0.25549087 5.125 0.375 C9.10131586 0.74474888 11.76238305 1.51782701 15 4 C14.01 4.495 14.01 4.495 13 5 C12.46375 4.690625 11.9275 4.38125 11.375 4.0625 C6.75210318 1.99436195 2.21190176 2.65374236 -2.5 4 C-3.325 4.33 -4.15 4.66 -5 5 C-4.34 3.35 -3.68 1.7 -3 0 C-3.5775 0.350625 -4.155 0.70125 -4.75 1.0625 C-7.35801776 2.14917407 -8.39417629 1.93065133 -11 1 C-7.17250231 -1.60269843 -4.41615166 -0.78351078 0 0 Z " fill="#F8C29A" transform="translate(138,256)"/>
<path d="M0 0 C0.556875 0.268125 1.11375 0.53625 1.6875 0.8125 C1.6875 1.8025 1.6875 2.7925 1.6875 3.8125 C0.3675 3.8125 -0.9525 3.8125 -2.3125 3.8125 C-2.3125 4.4725 -2.3125 5.1325 -2.3125 5.8125 C-6.63068182 10.47159091 -6.63068182 10.47159091 -9.3125 11.8125 C-9.9725 11.1525 -10.6325 10.4925 -11.3125 9.8125 C-3.52252907 -0.28561047 -3.52252907 -0.28561047 0 0 Z " fill="#90A97D" transform="translate(243.3125,255.1875)"/>
<path d="M0 0 C1 3 1 3 0.3125 5.5625 C-1.16086774 8.29875437 -2.13522966 8.94958421 -5 10 C-5.625 6.625 -5.625 6.625 -6 3 C-3.8614515 0.8614515 -2.86724686 0.57344937 0 0 Z " fill="#F18F4E" transform="translate(344,285)"/>
<path d="M0 0 C1.32 0 2.64 0 4 0 C3.46324097 3.85103301 1.88399077 5.31797587 -1.0625 7.75 C-2.16271484 8.67039062 -2.16271484 8.67039062 -3.28515625 9.609375 C-3.85105469 10.06828125 -4.41695312 10.5271875 -5 11 C-5.66 10.34 -6.32 9.68 -7 9 C-6.0409375 8.1028125 -6.0409375 8.1028125 -5.0625 7.1875 C-2.79689611 5.09189663 -2.79689611 5.09189663 -2 2 C-1.34 2 -0.68 2 0 2 C0 1.34 0 0.68 0 0 Z " fill="#547F40" transform="translate(234,250)"/>
<path d="M0 0 C2.97 0 5.94 0 9 0 C10 4 10 4 9 6 C6.69 6 4.38 6 2 6 C1.855625 5.38125 1.71125 4.7625 1.5625 4.125 C1.06847775 1.96741678 1.06847775 1.96741678 0 0 Z " fill="#A5B58F" transform="translate(241,249)"/>
<path d="M0 0 C0.99 0.33 1.98 0.66 3 1 C2.67 4.3 2.34 7.6 2 11 C1.34 10.34 0.68 9.68 0 9 C-0.45375 9.969375 -0.9075 10.93875 -1.375 11.9375 C-3 15 -3 15 -5 16 C-4.70351562 15.29488281 -4.40703125 14.58976562 -4.1015625 13.86328125 C-2.9987602 10.99677739 -2.16158606 8.15507468 -1.375 5.1875 C-1.11460937 4.21167969 -0.85421875 3.23585938 -0.5859375 2.23046875 C-0.39257812 1.49441406 -0.19921875 0.75835937 0 0 Z " fill="#FAE3D0" transform="translate(162,273)"/>
<path d="M0 0 C0.99 0 1.98 0 3 0 C3 4.29 3 8.58 3 13 C2.01 13 1.02 13 0 13 C-0.66 11.68 -1.32 10.36 -2 9 C-1.34 9 -0.68 9 0 9 C0 7.68 0 6.36 0 5 C-0.66 4.67 -1.32 4.34 -2 4 C-1.34 2.68 -0.68 1.36 0 0 Z " fill="#F2BC98" transform="translate(306,269)"/>
<path d="M0 0 C0.33 0.66 0.66 1.32 1 2 C-0.2739589 4.03833424 -1.61061923 6.03852126 -3 8 C-3.66 8 -4.32 8 -5 8 C-5 8.66 -5 9.32 -5 10 C-6.65 10 -8.3 10 -10 10 C-10 9.01 -10 8.02 -10 7 C-7.6171771 5.27907235 -5.62856662 4.13968147 -2.75 3.5 C-2.1725 3.335 -1.595 3.17 -1 3 C-0.67 2.01 -0.34 1.02 0 0 Z " fill="#739466" transform="translate(237,283)"/>
<path d="M0 0 C3.39998727 1.13332909 3.66252304 1.53563161 5.25 4.5625 C7.4131841 9.17066231 7.2466664 12.0964455 6 17 C4.44140625 18.73046875 4.44140625 18.73046875 3 20 C3.0721875 19.31292969 3.144375 18.62585938 3.21875 17.91796875 C3.3115625 17.01691406 3.404375 16.11585938 3.5 15.1875 C3.5928125 14.29417969 3.685625 13.40085937 3.78125 12.48046875 C4.04392401 9.91694901 4.04392401 9.91694901 4 7 C3.34 7 2.68 7 2 7 C1.34 4.69 0.68 2.38 0 0 Z " fill="#F8C5A7" transform="translate(38,276)"/>
<path d="M0 0 C0.66 0.33 1.32 0.66 2 1 C1.14285714 9.57142857 1.14285714 9.57142857 -1 13 C-1 11.35 -1 9.7 -1 8 C-2.65 8.33 -4.3 8.66 -6 9 C-4.02 6.03 -2.04 3.06 0 0 Z " fill="#F2CEB3" transform="translate(99,283)"/>
<path d="M0 0 C6.6 0 13.2 0 20 0 C20 0.33 20 0.66 20 1 C12.08 1.495 12.08 1.495 4 2 C5.65 3.65 7.3 5.3 9 7 C8.67 7.66 8.34 8.32 8 9 C7.236875 8.195625 6.47375 7.39125 5.6875 6.5625 C3.20569102 3.83200976 3.20569102 3.83200976 0 3 C0 2.01 0 1.02 0 0 Z " fill="#FDE6D3" transform="translate(331,254)"/>
<path d="M0 0 C0.99 0 1.98 0 3 0 C2.14285714 8.57142857 2.14285714 8.57142857 0 12 C0 10.35 0 8.7 0 7 C-1.65 7.33 -3.3 7.66 -5 8 C-4.360625 7.236875 -3.72125 6.47375 -3.0625 5.6875 C-0.85767219 3.11753287 -0.85767219 3.11753287 0 0 Z " fill="#F2CEB3" transform="translate(314,284)"/>
<path d="M0 0 C0.99 0 1.98 0 3 0 C4.34382872 6.23047859 4.34382872 6.23047859 2.6875 9.9375 C1.8521875 10.9584375 1.8521875 10.9584375 1 12 C0.34 12 -0.32 12 -1 12 C-0.67 8.04 -0.34 4.08 0 0 Z " fill="#FE7218" transform="translate(483,284)"/>
<path d="M0 0 C2.475 0.99 2.475 0.99 5 2 C4.67 2.99 4.34 3.98 4 5 C3.34 5 2.68 5 2 5 C1.34 6.65 0.68 8.3 0 10 C-0.33 10 -0.66 10 -1 10 C-2.25 3.375 -2.25 3.375 0 0 Z " fill="#F6772A" transform="translate(356,276)"/>
<path d="M0 0 C0.66 0 1.32 0 2 0 C2 0.66 2 1.32 2 2 C3.65 2.33 5.3 2.66 7 3 C7 3.99 7 4.98 7 6 C5.35 6.33 3.7 6.66 2 7 C2 6.34 2 5.68 2 5 C1.01 4.67 0.02 4.34 -1 4 C-0.67 2.68 -0.34 1.36 0 0 Z " fill="#FB7520" transform="translate(461,264)"/>
<path d="M0 0 C0.66 0 1.32 0 2 0 C2 3.63 2 7.26 2 11 C2.66 11 3.32 11 4 11 C4.33 10.01 4.66 9.02 5 8 C4.67 9.65 4.34 11.3 4 13 C2.35 13.33 0.7 13.66 -1 14 C-0.7525 13.0409375 -0.7525 13.0409375 -0.5 12.0625 C0.15932515 8.02413348 0.08003779 4.08192742 0 0 Z " fill="#EB7B34" transform="translate(480,285)"/>
<path d="M0 0 C0.99 0 1.98 0 3 0 C3 0.66 3 1.32 3 2 C11.415 1.505 11.415 1.505 20 1 C16.89914429 3.06723714 16.27068319 3.24497423 12.76953125 3.1953125 C11.56586914 3.18564453 11.56586914 3.18564453 10.33789062 3.17578125 C9.50451172 3.15902344 8.67113281 3.14226562 7.8125 3.125 C6.96751953 3.11597656 6.12253906 3.10695313 5.25195312 3.09765625 C3.16784757 3.07410703 1.08388783 3.03823647 -1 3 C-0.67 2.01 -0.34 1.02 0 0 Z " fill="#EEE5BB" transform="translate(213,294)"/>
<path d="M0 0 C0.33 0 0.66 0 1 0 C0.98839844 0.67546875 0.97679687 1.3509375 0.96484375 2.046875 C0.95582031 2.93890625 0.94679688 3.8309375 0.9375 4.75 C0.92589844 5.63171875 0.91429687 6.5134375 0.90234375 7.421875 C0.99173802 9.7818838 1.33087179 11.74498524 2 14 C0.68 13.67 -0.64 13.34 -2 13 C-2.05416188 11.39620659 -2.09286638 9.79188594 -2.125 8.1875 C-2.14820313 7.29417969 -2.17140625 6.40085937 -2.1953125 5.48046875 C-2 3 -2 3 0 0 Z " fill="#E5B38D" transform="translate(13,280)"/>
<path d="M0 0 C0.33 0.66 0.66 1.32 1 2 C0.67 2.66 0.34 3.32 0 4 C1.32 4 2.64 4 4 4 C2.70700306 6.88437779 1.34058637 8.87219421 -1 11 C-1 9.68 -1 8.36 -1 7 C-1.99 7 -2.98 7 -4 7 C-2.79618552 4.50638429 -1.54571278 2.31856917 0 0 Z " fill="#F2A878" transform="translate(345,279)"/>
<path d="M0 0 C0.99 0 1.98 0 3 0 C3 0.99 3 1.98 3 3 C2.34 3 1.68 3 1 3 C1 10.59 1 18.18 1 26 C0.67 26 0.34 26 0 26 C0 17.42 0 8.84 0 0 Z " fill="#E9CD50" transform="translate(225,268)"/>
<path d="M0 0 C0 0.33 0 0.66 0 1 C-1.98 1.33 -3.96 1.66 -6 2 C-2.535 3.485 -2.535 3.485 1 5 C-1.52053595 6.26026798 -2.8542098 5.91874445 -5.625 5.5625 C-6.85089844 5.40974609 -6.85089844 5.40974609 -8.1015625 5.25390625 C-9.04128906 5.12822266 -9.04128906 5.12822266 -10 5 C-10.33 4.01 -10.66 3.02 -11 2 C-7.36576791 -0.32590854 -4.22911669 -0.16265833 0 0 Z " fill="#FEF6CC" transform="translate(208,246)"/>
<path d="M0 0 C6.6 0 13.2 0 20 0 C19 2 18 4 17 6 C16.67 4.35 16.34 2.7 16 1 C15.09636719 1.09539062 14.19273437 1.19078125 13.26171875 1.2890625 C12.08222656 1.39992188 10.90273438 1.51078125 9.6875 1.625 C8.51574219 1.74101562 7.34398437 1.85703125 6.13671875 1.9765625 C3 2 3 2 0 0 Z " fill="#E1AD8A" transform="translate(332,255)"/>
<path d="M0 0 C0.66 0.66 1.32 1.32 2 2 C1.67 2.99 1.34 3.98 1 5 C0.0409375 5.2165625 0.0409375 5.2165625 -0.9375 5.4375 C-3.20311706 5.80104993 -3.20311706 5.80104993 -4.25 8.0625 C-4.4975 8.701875 -4.745 9.34125 -5 10 C-5.33 9.01 -5.66 8.02 -6 7 C-4.78515625 5.17578125 -4.78515625 5.17578125 -3.0625 3.3125 C-2.49660156 2.68988281 -1.93070313 2.06726563 -1.34765625 1.42578125 C-0.90292969 0.95527344 -0.45820313 0.48476563 0 0 Z " fill="#C5CEB9" transform="translate(244,262)"/>
<path d="M0 0 C0.33 0 0.66 0 1 0 C1.36521739 5.47826087 1.36521739 5.47826087 -0.3125 7.875 C-2 9 -2 9 -5 9 C-3.75471468 5.55151758 -2.38532951 2.80016942 0 0 Z " fill="#EC7B33" transform="translate(337,292)"/>
<path d="M0 0 C0 1.32 0 2.64 0 4 C-5.28 4 -10.56 4 -16 4 C-16 3.67 -16 3.34 -16 3 C-15.32453125 2.95101563 -14.6490625 2.90203125 -13.953125 2.8515625 C-13.06109375 2.77679688 -12.1690625 2.70203125 -11.25 2.625 C-10.36828125 2.55539062 -9.4865625 2.48578125 -8.578125 2.4140625 C-5.4633461 1.91381013 -3.09275786 0 0 0 Z " fill="#F07A32" transform="translate(313,291)"/>
<path d="M0 0 C2.72426311 2.35277269 3.8141763 4.62496331 5 8 C5.66 8 6.32 8 7 8 C7 8.66 7 9.32 7 10 C4.69 9.34 2.38 8.68 0 8 C0 5.36 0 2.72 0 0 Z " fill="#F2925C" transform="translate(350,261)"/>
<path d="M0 0 C3.96 0 7.92 0 12 0 C14 5 14 5 13 8 C12.34 7.67 11.68 7.34 11 7 C11 5.02 11 3.04 11 1 C8.36 1 5.72 1 3 1 C2.67 1.99 2.34 2.98 2 4 C1.34 2.68 0.68 1.36 0 0 Z " fill="#EB7B37" transform="translate(336,256)"/>
<path d="M0 0 C0.66 0 1.32 0 2 0 C2 0.66 2 1.32 2 2 C1.34 2 0.68 2 0 2 C-0.061875 2.5775 -0.12375 3.155 -0.1875 3.75 C-1.32027301 6.88690987 -3.34197595 8.09167504 -6 10 C-6 6 -6 6 -3.5625 3.3125 C-2.716875 2.549375 -1.87125 1.78625 -1 1 C-0.67 0.67 -0.34 0.34 0 0 Z " fill="#3C6A27" transform="translate(232,250)"/>
<path d="M0 0 C0.66 0.33 1.32 0.66 2 1 C1.67 1.33 1.34 1.66 1 2 C1.99 2.66 2.98 3.32 4 4 C1.04335481 5.4783226 -1.74229737 5.06032783 -5 5 C-5 4.01 -5 3.02 -5 2 C-2.625 0.9375 -2.625 0.9375 0 0 Z " fill="#EFD2B9" transform="translate(327,301)"/>
<path d="M0 0 C2.625 -0.1875 2.625 -0.1875 5 0 C4.75 1.875 4.75 1.875 4 4 C1.9375 5.25 1.9375 5.25 0 6 C-0.66 5.01 -1.32 4.02 -2 3 C-1.34 2.01 -0.68 1.02 0 0 Z " fill="#F58C4A" transform="translate(36,294)"/>
<path d="M0 0 C0.66 0.33 1.32 0.66 2 1 C1.45925627 4.78520613 -0.07572746 6.59177555 -3 9 C-3.99 9 -4.98 9 -6 9 C-6 7.68 -6 6.36 -6 5 C-4.02 4.34 -2.04 3.68 0 3 C0 2.01 0 1.02 0 0 Z " fill="#9DAF8F" transform="translate(233,277)"/>
<path d="M0 0 C1.32 1.32 2.64 2.64 4 4 C3.01 4.33 2.02 4.66 1 5 C1.33 6.32 1.66 7.64 2 9 C0.02 7.35 -1.96 5.7 -4 4 C-3.34 3.67 -2.68 3.34 -2 3 C-1.34 3.33 -0.68 3.66 0 4 C0 2.68 0 1.36 0 0 Z " fill="#E6CC4F" transform="translate(240,276)"/>
<path d="M0 0 C1.32 0.66 2.64 1.32 4 2 C3.67 3.65 3.34 5.3 3 7 C0.525 6.01 0.525 6.01 -2 5 C-2 2 -2 2 0 0 Z " fill="#F38947" transform="translate(477,278)"/>
<path d="M0 0 C2.31 0 4.62 0 7 0 C7.99 2.31 8.98 4.62 10 7 C5.56541027 5.6062718 3.12621626 3.39417765 0 0 Z " fill="#ED9C6B" transform="translate(464,274)"/>
<path d="M0 0 C2 3 2 3 2 5 C3.32 5 4.64 5 6 5 C6.66 6.65 7.32 8.3 8 10 C4.10918157 8.70306052 1.51818326 7.29300888 -1 4 C-0.75 1.75 -0.75 1.75 0 0 Z " fill="#EC9E70" transform="translate(16,268)"/>
<path d="M0 0 C1.65 1.65 3.3 3.3 5 5 C4.01 5 3.02 5 2 5 C1.67 5.66 1.34 6.32 1 7 C0.34 7 -0.32 7 -1 7 C-1.66 6.01 -2.32 5.02 -3 4 C-2.67 3.01 -2.34 2.02 -2 1 C-1.67 1.33 -1.34 1.66 -1 2 C-0.67 1.34 -0.34 0.68 0 0 Z " fill="#F6C49E" transform="translate(459,291)"/>
<path d="M0 0 C0.66 0.33 1.32 0.66 2 1 C1.34 4.96 0.68 8.92 0 13 C-0.33 13 -0.66 13 -1 13 C-1.144375 11.88625 -1.28875 10.7725 -1.4375 9.625 C-1.78372035 6.17857953 -1.78372035 6.17857953 -3 4 C-2.01 2.68 -1.02 1.36 0 0 Z " fill="#F5E3D1" transform="translate(459,278)"/>
<path d="M0 0 C4.44536093 2.99206986 7.84778899 5.58690458 11 10 C8 10 8 10 5.95703125 8.3203125 C5.24933594 7.59585937 4.54164063 6.87140625 3.8125 6.125 C2.73935547 5.04605469 2.73935547 5.04605469 1.64453125 3.9453125 C0 2 0 2 0 0 Z " fill="#E9DB90" transform="translate(225,260)"/>
<path d="M0 0 C1.7074998 1.28062485 3.37373596 2.61767557 5 4 C5 4.66 5 5.32 5 6 C2.625 5.6875 2.625 5.6875 0 5 C-0.66 4.01 -1.32 3.02 -2 2 C-1.34 1.34 -0.68 0.68 0 0 Z " fill="#F6D135" transform="translate(257,296)"/>
<path d="M0 0 C0.99 0.99 1.98 1.98 3 3 C1.71937515 4.7074998 0.38232443 6.37373596 -1 8 C-1.66 8 -2.32 8 -3 8 C-2.37240135 5.07120629 -1.41377341 2.63904371 0 0 Z " fill="#4C702A" transform="translate(241,285)"/>
<path d="M0 0 C0.33 0.99 0.66 1.98 1 3 C-1 5 -1 5 -3.625 5.125 C-4.40875 5.08375 -5.1925 5.0425 -6 5 C-4.87312259 1.61936778 -3.78825335 0 0 0 Z " fill="#A7B7A3" transform="translate(233,277)"/>
<path d="M0 0 C0.99 0 1.98 0 3 0 C2.835 0.928125 2.67 1.85625 2.5 2.8125 C1.92251612 5.95621353 1.92251612 5.95621353 2 9 C1.01 8.67 0.02 8.34 -1 8 C-1 6.35 -1 4.7 -1 3 C-0.34 3 0.32 3 1 3 C0.67 2.01 0.34 1.02 0 0 Z " fill="#EE9661" transform="translate(358,269)"/>
<path d="M0 0 C1.65 0 3.3 0 5 0 C5 1.65 5 3.3 5 5 C4.67 4.34 4.34 3.68 4 3 C1.69 3.33 -0.62 3.66 -3 4 C-2.67 3.34 -2.34 2.68 -2 2 C-1.34 2 -0.68 2 0 2 C0 1.34 0 0.68 0 0 Z " fill="#A4B596" transform="translate(241,259)"/>
<path d="M0 0 C1.25541557 3.76624671 0.37061958 5.37188934 -1 9 C-1.33 8.34 -1.66 7.68 -2 7 C-2.66 7 -3.32 7 -4 7 C-3.43628586 3.73045798 -2.50037734 2.17424117 0 0 Z " fill="#E87C3C" transform="translate(435,247)"/>
<path d="M0 0 C3.057952 1.73559438 5.63379989 3.38472619 8 6 C6.081875 5.8453125 6.081875 5.8453125 4.125 5.6875 C3.04605469 5.60048828 3.04605469 5.60048828 1.9453125 5.51171875 C0 5 0 5 -2 2 C-1.34 2 -0.68 2 0 2 C0 1.34 0 0.68 0 0 Z " fill="#F38C4E" transform="translate(21,264)"/>
<path d="M0 0 C0.86625 0.3403125 0.86625 0.3403125 1.75 0.6875 C0.76 2.0075 -0.23 3.3275 -1.25 4.6875 C-3.725 3.6975 -3.725 3.6975 -6.25 2.6875 C-2.80384615 -0.38942308 -2.80384615 -0.38942308 0 0 Z " fill="#7E9770" transform="translate(234.25,260.3125)"/>
<path d="M0 0 C1.32 0 2.64 0 4 0 C4 0.66 4 1.32 4 2 C2.04072937 3.7143618 0.04119788 5.38405168 -2 7 C-2.66 6.67 -3.32 6.34 -4 6 C-3.34 4.68 -2.68 3.36 -2 2 C-1.34 2 -0.68 2 0 2 C0 1.34 0 0.68 0 0 Z " fill="#4C7738" transform="translate(234,250)"/>
<path d="M0 0 C4.75 1.875 4.75 1.875 7 3 C7 3.66 7 4.32 7 5 C6.01 5.33 5.02 5.66 4 6 C2.62437146 4.71034824 1.29233607 3.37310707 0 2 C0 1.34 0 0.68 0 0 Z " fill="#E6975E" transform="translate(12,293)"/>
<path d="M0 0 C1.98 0.66 3.96 1.32 6 2 C6 2.66 6 3.32 6 4 C2.7 4 -0.6 4 -4 4 C-2.68 3.67 -1.36 3.34 0 3 C0 2.01 0 1.02 0 0 Z " fill="#E8A678" transform="translate(370,292)"/>
<path d="M0 0 C0.33 0.66 0.66 1.32 1 2 C0.67 2.66 0.34 3.32 0 4 C0.99 4.33 1.98 4.66 3 5 C1.35 5.66 -0.3 6.32 -2 7 C-2.33 6.01 -2.66 5.02 -3 4 C-1.5625 1.8125 -1.5625 1.8125 0 0 Z " fill="#F0A678" transform="translate(426,289)"/>
<path d="M0 0 C0.33 0 0.66 0 1 0 C1 4.29 1 8.58 1 13 C0.34 13 -0.32 13 -1 13 C-1.33 11.68 -1.66 10.36 -2 9 C-1.34 9 -0.68 9 0 9 C-0.185625 7.88625 -0.37125 6.7725 -0.5625 5.625 C-1 2 -1 2 0 0 Z " fill="#EFBB9B" transform="translate(91,270)"/>
<path d="M0 0 C1.32 0.33 2.64 0.66 4 1 C4.33 3.31 4.66 5.62 5 8 C4.01 8.66 3.02 9.32 2 10 C2.226875 9.4225 2.45375 8.845 2.6875 8.25 C3.27095593 5.89006205 3.27095593 5.89006205 1.5625 3.875 C1.046875 3.25625 0.53125 2.6375 0 2 C0 1.34 0 0.68 0 0 Z " fill="#EDA37A" transform="translate(344,269)"/>
<path d="M0 0 C3.3 0 6.6 0 10 0 C10 0.99 10 1.98 10 3 C8.68 3.33 7.36 3.66 6 4 C6 3.01 6 2.02 6 1 C4.02 1 2.04 1 0 1 C0 0.67 0 0.34 0 0 Z " fill="#F6F2C8" transform="translate(250,254)"/>
<path d="M0 0 C1.32 0 2.64 0 4 0 C3.67 0.99 3.34 1.98 3 3 C2.34 3 1.68 3 1 3 C1 3.66 1 4.32 1 5 C-0.65 5.66 -2.3 6.32 -4 7 C-2.68 4.69 -1.36 2.38 0 0 Z " fill="#638855" transform="translate(238,250)"/>
<path d="M0 0 C0.33 0.99 0.66 1.98 1 3 C-0.98 3.33 -2.96 3.66 -5 4 C-5.66 3.01 -6.32 2.02 -7 1 C-4.53721199 -0.231394 -2.7204945 -0.07159196 0 0 Z " fill="#F4E0CF" transform="translate(445,242)"/>
<path d="M0 0 C3 1 3 1 5 4 C5.125 7.1875 5.125 7.1875 5 10 C4.67 9.01 4.34 8.02 4 7 C3.34 7 2.68 7 2 7 C1.34 4.69 0.68 2.38 0 0 Z " fill="#EFA472" transform="translate(38,276)"/>
<path d="M0 0 C1.65 0.33 3.3 0.66 5 1 C5 2.65 5 4.3 5 6 C4.566875 5.505 4.13375 5.01 3.6875 4.5 C2.00259517 2.66781808 2.00259517 2.66781808 -1 3 C-0.67 2.01 -0.34 1.02 0 0 Z " fill="#E9A075" transform="translate(350,280)"/>
<path d="M0 0 C0.99 0 1.98 0 3 0 C3 4.29 3 8.58 3 13 C2.67 13 2.34 13 2 13 C2 9.7 2 6.4 2 3 C1.34 3 0.68 3 0 3 C0 2.01 0 1.02 0 0 Z " fill="#F7EDD5" transform="translate(306,269)"/>
<path d="M0 0 C1.65 0 3.3 0 5 0 C5.33 0.99 5.66 1.98 6 3 C3.69 3.33 1.38 3.66 -1 4 C-0.67 2.68 -0.34 1.36 0 0 Z " fill="#FD7318" transform="translate(469,271)"/>
<path d="M0 0 C0.33 0.99 0.66 1.98 1 3 C-0.32 3.99 -1.64 4.98 -3 6 C-4.32 5.34 -5.64 4.68 -7 4 C-6.1028125 3.566875 -6.1028125 3.566875 -5.1875 3.125 C-2.80672208 1.95257974 -2.80672208 1.95257974 0 0 Z " fill="#6A8A56" transform="translate(233,257)"/>
<path d="M0 0 C0.763125 0.20625 1.52625 0.4125 2.3125 0.625 C2.3125 1.285 2.3125 1.945 2.3125 2.625 C-0.3275 2.295 -2.9675 1.965 -5.6875 1.625 C-2.6875 -0.375 -2.6875 -0.375 0 0 Z " fill="#EE7A2F" transform="translate(134.6875,292.375)"/>
<path d="M0 0 C2.97 0.495 2.97 0.495 6 1 C6 1.99 6 2.98 6 4 C6.99 4.33 7.98 4.66 9 5 C4.68607774 4.5206753 2.83430453 3.2542015 0 0 Z " fill="#ECA070" transform="translate(123,290)"/>
<path d="M0 0 C0.99 0.33 1.98 0.66 3 1 C2.67 2.32 2.34 3.64 2 5 C0.68 5 -0.64 5 -2 5 C-1.34 3.35 -0.68 1.7 0 0 Z " fill="#EB833F" transform="translate(428,288)"/>
<path d="M0 0 C0 1.98 0 3.96 0 6 C-1.32 5.34 -2.64 4.68 -4 4 C-3.67 3.01 -3.34 2.02 -3 1 C-1 0 -1 0 0 0 Z " fill="#E58140" transform="translate(91,273)"/>
<path d="M0 0 C0.66 0 1.32 0 2 0 C3.06652192 2.30368736 4.06421005 4.64018187 5 7 C4.67 7.66 4.34 8.32 4 9 C1.49701566 6.06171403 0.53069061 3.82097239 0 0 Z " fill="#E99E78" transform="translate(339,260)"/>
<path d="M0 0 C0.66 0 1.32 0 2 0 C1.67 1.98 1.34 3.96 1 6 C0.01 5.67 -0.98 5.34 -2 5 C-1.125 1.125 -1.125 1.125 0 0 Z " fill="#EF7A36" transform="translate(368,253)"/>
<path d="M0 0 C2.475 0.495 2.475 0.495 5 1 C5.33 1.99 5.66 2.98 6 4 C4.35 3.67 2.7 3.34 1 3 C0.67 2.01 0.34 1.02 0 0 Z " fill="#F8D132" transform="translate(210,250)"/>
<path d="" fill="#FFFFFF" transform="translate(0,0)"/>
<path d="" fill="#FFFFFF" transform="translate(0,0)"/>
<path d="" fill="#FFFFFF" transform="translate(0,0)"/>
<path d="" fill="#FFFFFF" transform="translate(0,0)"/>
<path d="" fill="#FFFFFF" transform="translate(0,0)"/>
<path d="" fill="#FFFFFF" transform="translate(0,0)"/>
<path d="" fill="#FFFFFF" transform="translate(0,0)"/>
<path d="" fill="#FFFFFF" transform="translate(0,0)"/>
<path d="" fill="#FFFFFF" transform="translate(0,0)"/>
<path d="" fill="#FFFFFF" transform="translate(0,0)"/>
<path d="" fill="#FFFFFF" transform="translate(0,0)"/>
<path d="" fill="#FFFFFF" transform="translate(0,0)"/>
<path d="" fill="#FFFFFF" transform="translate(0,0)"/>
<path d="" fill="#FFFFFF" transform="translate(0,0)"/>
<path d="" fill="#FFFFFF" transform="translate(0,0)"/>
<path d="" fill="#FFFFFF" transform="translate(0,0)"/>
<path d="" fill="#FFFFFF" transform="translate(0,0)"/>
<path d="" fill="#FFFFFF" transform="translate(0,0)"/>
<path d="" fill="#FFFFFF" transform="translate(0,0)"/>
<path d="" fill="#FFFFFF" transform="translate(0,0)"/>
<path d="" fill="#FFFFFF" transform="translate(0,0)"/>
<path d="" fill="#FFFFFF" transform="translate(0,0)"/>
<path d="" fill="#FFFFFF" transform="translate(0,0)"/>
<path d="" fill="#FFFFFF" transform="translate(0,0)"/>
<path d="" fill="#FFFFFF" transform="translate(0,0)"/>
<path d="" fill="#FFFFFF" transform="translate(0,0)"/>
<path d="" fill="#FFFFFF" transform="translate(0,0)"/>
<path d="" fill="#FFFFFF" transform="translate(0,0)"/>
<path d="" fill="#FFFFFF" transform="translate(0,0)"/>
<path d="" fill="#FFFFFF" transform="translate(0,0)"/>
<path d="" fill="#FFFFFF" transform="translate(0,0)"/>
<path d="" fill="#FFFFFF" transform="translate(0,0)"/>
<path d="" fill="#FFFFFF" transform="translate(0,0)"/>
<path d="" fill="#FFFFFF" transform="translate(0,0)"/>
<path d="" fill="#FFFFFF" transform="translate(0,0)"/>
<path d="" fill="#FFFFFF" transform="translate(0,0)"/>
<path d="" fill="#FFFFFF" transform="translate(0,0)"/>
<path d="" fill="#FFFFFF" transform="translate(0,0)"/>
<path d="" fill="#FFFFFF" transform="translate(0,0)"/>
<path d="" fill="#FFFFFF" transform="translate(0,0)"/>
<path d="" fill="#FFFFFF" transform="translate(0,0)"/>
<path d="" fill="#FFFFFF" transform="translate(0,0)"/>
<path d="" fill="#FFFFFF" transform="translate(0,0)"/>
<path d="" fill="#FFFFFF" transform="translate(0,0)"/>
<path d="" fill="#FFFFFF" transform="translate(0,0)"/>
<path d="" fill="#FFFFFF" transform="translate(0,0)"/>
<path d="" fill="#FFFFFF" transform="translate(0,0)"/>
<path d="" fill="#FFFFFF" transform="translate(0,0)"/>
<path d="" fill="#FFFFFF" transform="translate(0,0)"/>
<path d="" fill="#FFFFFF" transform="translate(0,0)"/>
<path d="" fill="#FFFFFF" transform="translate(0,0)"/>
<path d="" fill="#FFFFFF" transform="translate(0,0)"/>
<path d="" fill="#FFFFFF" transform="translate(0,0)"/>
<path d="" fill="#FFFFFF" transform="translate(0,0)"/>
<path d="" fill="#FFFFFF" transform="translate(0,0)"/>
<path d="" fill="#FFFFFF" transform="translate(0,0)"/>
<path d="" fill="#FFFFFF" transform="translate(0,0)"/>
<path d="" fill="#FFFFFF" transform="translate(0,0)"/>
<path d="" fill="#FFFFFF" transform="translate(0,0)"/>
<path d="" fill="#FFFFFF" transform="translate(0,0)"/>
<path d="" fill="#FFFFFF" transform="translate(0,0)"/>
<path d="" fill="#FFFFFF" transform="translate(0,0)"/>
<path d="" fill="#FFFFFF" transform="translate(0,0)"/>
<path d="" fill="#FFFFFF" transform="translate(0,0)"/>
<path d="" fill="#FFFFFF" transform="translate(0,0)"/>
<path d="" fill="#FFFFFF" transform="translate(0,0)"/>
<path d="" fill="#FFFFFF" transform="translate(0,0)"/>
<path d="" fill="#FFFFFF" transform="translate(0,0)"/>
<path d="" fill="#FFFFFF" transform="translate(0,0)"/>
<path d="" fill="#FFFFFF" transform="translate(0,0)"/>
<path d="" fill="#FFFFFF" transform="translate(0,0)"/>
<path d="" fill="#FFFFFF" transform="translate(0,0)"/>
<path d="" fill="#FFFFFF" transform="translate(0,0)"/>
<path d="" fill="#FFFFFF" transform="translate(0,0)"/>
<path d="" fill="#FFFFFF" transform="translate(0,0)"/>
<path d="" fill="#FFFFFF" transform="translate(0,0)"/>
<path d="" fill="#FFFFFF" transform="translate(0,0)"/>
<path d="" fill="#FFFFFF" transform="translate(0,0)"/>
<path d="" fill="#FFFFFF" transform="translate(0,0)"/>
<path d="" fill="#FFFFFF" transform="translate(0,0)"/>
<path d="" fill="#FFFFFF" transform="translate(0,0)"/>
<path d="" fill="#FFFFFF" transform="translate(0,0)"/>
<path d="" fill="#FFFFFF" transform="translate(0,0)"/>
<path d="" fill="#FFFFFF" transform="translate(0,0)"/>
</svg>
